<?xml version="1.0" encoding="UTF-8" standalone="no"?><svg xmlns="http://www.w3.org/2000/svg" xmlns:xlink="http://www.w3.org/1999/xlink" contentScriptType="application/ecmascript" contentStyleType="text/css" height="820px" preserveAspectRatio="none" style="width:1569px;height:820px;" version="1.1" viewBox="0 0 1569 820" width="1569px" zoomAndPan="magnify"><defs><filter height="300%" id="f120w8d197js9h" width="300%" x="-1" y="-1"><feGaussianBlur result="blurOut" stdDeviation="2.0"/><feColorMatrix in="blurOut" result="blurOut2" type="matrix" values="0 0 0 0 0 0 0 0 0 0 0 0 0 0 0 0 0 0 .4 0"/><feOffset dx="4.0" dy="4.0" in="blurOut2" result="blurOut3"/><feBlend in="SourceGraphic" in2="blurOut3" mode="normal"/></filter></defs><g><!--cluster tumcsbot--><polygon fill="#FFFFFF" filter="url(#f120w8d197js9h)" points="22,43,102,43,109,65.2969,690,65.2969,690,155,22,155,22,43" style="stroke: #000000; stroke-width: 1.5;"/><line style="stroke: #000000; stroke-width: 1.5;" x1="22" x2="109" y1="65.2969" y2="65.2969"/><text fill="#000000" font-family="sans-serif" font-size="14" font-weight="bold" lengthAdjust="spacingAndGlyphs" textLength="74" x="26" y="57.9951">tumcsbot</text><!--cluster commands.example--><polygon fill="#FFFFFF" filter="url(#f120w8d197js9h)" points="653,215,815,215,822,237.2969,1242,237.2969,1242,394,653,394,653,215" style="stroke: #000000; stroke-width: 1.5;"/><line style="stroke: #000000; stroke-width: 1.5;" x1="653" x2="822" y1="237.2969" y2="237.2969"/><text fill="#000000" font-family="sans-serif" font-size="14" font-weight="bold" lengthAdjust="spacingAndGlyphs" textLength="156" x="657" y="229.9951">commands.example</text><!--cluster command--><polygon fill="#FFFFFF" filter="url(#f120w8d197js9h)" points="766,24,848,24,855,46.2969,1318,46.2969,1318,174,766,174,766,24" style="stroke: #000000; stroke-width: 1.5;"/><line style="stroke: #000000; stroke-width: 1.5;" x1="766" x2="855" y1="46.2969" y2="46.2969"/><text fill="#000000" font-family="sans-serif" font-size="14" font-weight="bold" lengthAdjust="spacingAndGlyphs" textLength="76" x="770" y="38.9951">command</text><!--cluster lib--><polygon fill="#FFFFFF" filter="url(#f120w8d197js9h)" points="498,443,522,443,529,465.2969,1547,465.2969,1547,808,498,808,498,443" style="stroke: #000000; stroke-width: 1.5;"/><line style="stroke: #000000; stroke-width: 1.5;" x1="498" x2="529" y1="465.2969" y2="465.2969"/><text fill="#000000" font-family="sans-serif" font-size="14" font-weight="bold" lengthAdjust="spacingAndGlyphs" textLength="18" x="502" y="457.9951">lib</text><!--class tumcsbot.TumCSBot--><rect fill="#FEFECE" filter="url(#f120w8d197js9h)" height="60.8047" id="tumcsbot.TumCSBot" style="stroke: #A80036; stroke-width: 1.5;" width="635" x="38.5" y="78"/><ellipse cx="320.25" cy="94" fill="#ADD1B2" rx="11" ry="11" style="stroke: #A80036; stroke-width: 1.0;"/><path d="M323.2188,99.6406 Q322.6406,99.9375 322,100.0781 Q321.3594,100.2344 320.6563,100.2344 Q318.1563,100.2344 316.8281,98.5938 Q315.5156,96.9375 315.5156,93.8125 Q315.5156,90.6875 316.8281,89.0313 Q318.1563,87.375 320.6563,87.375 Q321.3594,87.375 322,87.5313 Q322.6563,87.6875 323.2188,87.9844 L323.2188,90.7031 Q322.5938,90.125 322,89.8594 Q321.4063,89.5781 320.7813,89.5781 Q319.4375,89.5781 318.75,90.6563 Q318.0625,91.7188 318.0625,93.8125 Q318.0625,95.9063 318.75,96.9844 Q319.4375,98.0469 320.7813,98.0469 Q321.4063,98.0469 322,97.7813 Q322.5938,97.5 323.2188,96.9219 L323.2188,99.6406 Z "/><text fill="#000000" font-family="sans-serif" font-size="12" lengthAdjust="spacingAndGlyphs" textLength="63" x="340.75" y="98.1543">TumCSBot</text><line style="stroke: #A80036; stroke-width: 1.5;" x1="39.5" x2="672.5" y1="110" y2="110"/><line style="stroke: #A80036; stroke-width: 1.5;" x1="39.5" x2="672.5" y1="118" y2="118"/><text fill="#000000" font-family="sans-serif" font-size="11" lengthAdjust="spacingAndGlyphs" textLength="623" x="44.5" y="132.2104">__init__(self, zuliprc: str, db_path: str, debug: bool = False, logfile: Optional[str] = None, **kwargs: str) -&gt; None</text><!--class commands.example.Command--><rect fill="#FEFECE" filter="url(#f120w8d197js9h)" height="112.0234" id="commands.example.Command" style="stroke: #A80036; stroke-width: 1.5;" width="522" x="696" y="258"/><ellipse cx="921.75" cy="274" fill="#ADD1B2" rx="11" ry="11" style="stroke: #A80036; stroke-width: 1.0;"/><path d="M924.7188,279.6406 Q924.1406,279.9375 923.5,280.0781 Q922.8594,280.2344 922.1563,280.2344 Q919.6563,280.2344 918.3281,278.5938 Q917.0156,276.9375 917.0156,273.8125 Q917.0156,270.6875 918.3281,269.0313 Q919.6563,267.375 922.1563,267.375 Q922.8594,267.375 923.5,267.5313 Q924.1563,267.6875 924.7188,267.9844 L924.7188,270.7031 Q924.0938,270.125 923.5,269.8594 Q922.9063,269.5781 922.2813,269.5781 Q920.9375,269.5781 920.25,270.6563 Q919.5625,271.7188 919.5625,273.8125 Q919.5625,275.9063 920.25,276.9844 Q920.9375,278.0469 922.2813,278.0469 Q922.9063,278.0469 923.5,277.7813 Q924.0938,277.5 924.7188,276.9219 L924.7188,279.6406 Z "/><text fill="#000000" font-family="sans-serif" font-size="12" lengthAdjust="spacingAndGlyphs" textLength="62" x="942.25" y="278.1543">Command</text><line style="stroke: #A80036; stroke-width: 1.5;" x1="697" x2="1217" y1="290" y2="290"/><text fill="#000000" font-family="sans-serif" font-size="11" lengthAdjust="spacingAndGlyphs" text-decoration="underline" textLength="55" x="702" y="304.2104">name: str</text><line style="stroke: #000000; stroke-width: 1.0;" x1="702" x2="757" y1="306.2104" y2="306.2104"/><text fill="#000000" font-family="sans-serif" font-size="11" lengthAdjust="spacingAndGlyphs" text-decoration="underline" textLength="60" x="702" y="317.0151">syntax: str</text><line style="stroke: #000000; stroke-width: 1.0;" x1="702" x2="762" y1="319.0151" y2="319.0151"/><text fill="#000000" font-family="sans-serif" font-size="11" lengthAdjust="spacingAndGlyphs" text-decoration="underline" textLength="86" x="702" y="329.8198">description: str</text><line style="stroke: #000000; stroke-width: 1.0;" x1="702" x2="788" y1="331.8198" y2="331.8198"/><line style="stroke: #A80036; stroke-width: 1.5;" x1="697" x2="1217" y1="336.4141" y2="336.4141"/><text fill="#000000" font-family="sans-serif" font-size="11" lengthAdjust="spacingAndGlyphs" textLength="178" x="702" y="350.6245">__init__(self, **kwargs) -&gt; None</text><text fill="#000000" font-family="sans-serif" font-size="11" lengthAdjust="spacingAndGlyphs" textLength="510" x="702" y="363.4292">func(self, client: zulip.Client, message: Dict[str, Any], **kwargs) -&gt; Tuple[str, Dict[str, Any]]</text><!--class command.Command--><rect fill="#FEFECE" filter="url(#f120w8d197js9h)" height="99.2188" id="command.Command" style="stroke: #A80036; stroke-width: 1.5;" width="520" x="782" y="59"/><ellipse cx="1008.25" cy="75" fill="#A9DCDF" rx="11" ry="11" style="stroke: #A80036; stroke-width: 1.0;"/><path d="M1008.3594,70.3438 L1007.2031,75.4219 L1009.5313,75.4219 L1008.3594,70.3438 Z M1006.875,68.1094 L1009.8594,68.1094 L1013.2188,80.5 L1010.7656,80.5 L1010,77.4375 L1006.7188,77.4375 L1005.9688,80.5 L1003.5313,80.5 L1006.875,68.1094 Z "/><text fill="#000000" font-family="sans-serif" font-size="12" font-style="italic" lengthAdjust="spacingAndGlyphs" textLength="59" x="1028.75" y="79.1543">Command</text><line style="stroke: #A80036; stroke-width: 1.5;" x1="783" x2="1301" y1="91" y2="91"/><line style="stroke: #A80036; stroke-width: 1.5;" x1="783" x2="1301" y1="99" y2="99"/><text fill="#000000" font-family="sans-serif" font-size="11" font-style="italic" lengthAdjust="spacingAndGlyphs" textLength="176" x="788" y="113.2104">__init__(self, **kwargs) -&gt; None</text><text fill="#000000" font-family="sans-serif" font-size="11" font-style="italic" lengthAdjust="spacingAndGlyphs" textLength="508" x="788" y="126.0151">func(self, client: zulip.Client, message: Dict[str, Any], **kwargs) -&gt; Tuple[str, Dict[str, Any]]</text><text fill="#000000" font-family="sans-serif" font-size="11" lengthAdjust="spacingAndGlyphs" textLength="185" x="788" y="138.8198">get_usage(self) -&gt; Tuple[str, str]</text><text fill="#000000" font-family="sans-serif" font-size="11" lengthAdjust="spacingAndGlyphs" textLength="294" x="788" y="151.6245">is_responsible(self, message: Dict[str, Any]) -&gt; bool</text><!--class lib.StrEnum--><rect fill="#FEFECE" filter="url(#f120w8d197js9h)" height="48" id="lib.StrEnum" style="stroke: #A80036; stroke-width: 1.5;" width="85" x="541.5" y="518"/><ellipse cx="556.5" cy="534" fill="#ADD1B2" rx="11" ry="11" style="stroke: #A80036; stroke-width: 1.0;"/><path d="M559.4688,539.6406 Q558.8906,539.9375 558.25,540.0781 Q557.6094,540.2344 556.9063,540.2344 Q554.4063,540.2344 553.0781,538.5938 Q551.7656,536.9375 551.7656,533.8125 Q551.7656,530.6875 553.0781,529.0313 Q554.4063,527.375 556.9063,527.375 Q557.6094,527.375 558.25,527.5313 Q558.9063,527.6875 559.4688,527.9844 L559.4688,530.7031 Q558.8438,530.125 558.25,529.8594 Q557.6563,529.5781 557.0313,529.5781 Q555.6875,529.5781 555,530.6563 Q554.3125,531.7188 554.3125,533.8125 Q554.3125,535.9063 555,536.9844 Q555.6875,538.0469 557.0313,538.0469 Q557.6563,538.0469 558.25,537.7813 Q558.8438,537.5 559.4688,536.9219 L559.4688,539.6406 Z "/><text fill="#000000" font-family="sans-serif" font-size="12" lengthAdjust="spacingAndGlyphs" textLength="53" x="570.5" y="538.1543">StrEnum</text><line style="stroke: #A80036; stroke-width: 1.5;" x1="542.5" x2="625.5" y1="550" y2="550"/><line style="stroke: #A80036; stroke-width: 1.5;" x1="542.5" x2="625.5" y1="558" y2="558"/><!--class lib.DB--><rect fill="#FEFECE" filter="url(#f120w8d197js9h)" height="112.0234" id="lib.DB" style="stroke: #A80036; stroke-width: 1.5;" width="481" x="661.5" y="486"/><ellipse cx="889.25" cy="502" fill="#ADD1B2" rx="11" ry="11" style="stroke: #A80036; stroke-width: 1.0;"/><path d="M892.2188,507.6406 Q891.6406,507.9375 891,508.0781 Q890.3594,508.2344 889.6563,508.2344 Q887.1563,508.2344 885.8281,506.5938 Q884.5156,504.9375 884.5156,501.8125 Q884.5156,498.6875 885.8281,497.0313 Q887.1563,495.375 889.6563,495.375 Q890.3594,495.375 891,495.5313 Q891.6563,495.6875 892.2188,495.9844 L892.2188,498.7031 Q891.5938,498.125 891,497.8594 Q890.4063,497.5781 889.7813,497.5781 Q888.4375,497.5781 887.75,498.6563 Q887.0625,499.7188 887.0625,501.8125 Q887.0625,503.9063 887.75,504.9844 Q888.4375,506.0469 889.7813,506.0469 Q890.4063,506.0469 891,505.7813 Q891.5938,505.5 892.2188,504.9219 L892.2188,507.6406 Z "/><text fill="#000000" font-family="sans-serif" font-size="12" lengthAdjust="spacingAndGlyphs" textLength="17" x="909.75" y="506.1543">DB</text><line style="stroke: #A80036; stroke-width: 1.5;" x1="662.5" x2="1141.5" y1="518" y2="518"/><text fill="#000000" font-family="sans-serif" font-size="11" lengthAdjust="spacingAndGlyphs" text-decoration="underline" textLength="147" x="667.5" y="532.2104">path: Optional[str] = None</text><line style="stroke: #000000; stroke-width: 1.0;" x1="667.5" x2="814.5" y1="534.2104" y2="534.2104"/><line style="stroke: #A80036; stroke-width: 1.5;" x1="662.5" x2="1141.5" y1="538.8047" y2="538.8047"/><text fill="#000000" font-family="sans-serif" font-size="11" lengthAdjust="spacingAndGlyphs" textLength="118" x="667.5" y="553.0151">__init__(self) -&gt; None</text><text fill="#000000" font-family="sans-serif" font-size="11" lengthAdjust="spacingAndGlyphs" textLength="294" x="667.5" y="565.8198">checkout_table(self, table: str, schema: str) -&gt; None</text><text fill="#000000" font-family="sans-serif" font-size="11" lengthAdjust="spacingAndGlyphs" textLength="469" x="667.5" y="578.6245">checkout_row(self, table: str, key_column: str, key: str, default_values: str) -&gt; None</text><text fill="#000000" font-family="sans-serif" font-size="11" lengthAdjust="spacingAndGlyphs" textLength="409" x="667.5" y="591.4292">execute(self, command: str, commit: bool = False) -&gt; List[Tuple[Any, ...]]</text><!--class lib.Helper--><rect fill="#FEFECE" filter="url(#f120w8d197js9h)" height="73.6094" id="lib.Helper" style="stroke: #A80036; stroke-width: 1.5;" width="345" x="1177.5" y="505"/><ellipse cx="1325.25" cy="521" fill="#ADD1B2" rx="11" ry="11" style="stroke: #A80036; stroke-width: 1.0;"/><path d="M1328.2188,526.6406 Q1327.6406,526.9375 1327,527.0781 Q1326.3594,527.2344 1325.6563,527.2344 Q1323.1563,527.2344 1321.8281,525.5938 Q1320.5156,523.9375 1320.5156,520.8125 Q1320.5156,517.6875 1321.8281,516.0313 Q1323.1563,514.375 1325.6563,514.375 Q1326.3594,514.375 1327,514.5313 Q1327.6563,514.6875 1328.2188,514.9844 L1328.2188,517.7031 Q1327.5938,517.125 1327,516.8594 Q1326.4063,516.5781 1325.7813,516.5781 Q1324.4375,516.5781 1323.75,517.6563 Q1323.0625,518.7188 1323.0625,520.8125 Q1323.0625,522.9063 1323.75,523.9844 Q1324.4375,525.0469 1325.7813,525.0469 Q1326.4063,525.0469 1327,524.7813 Q1327.5938,524.5 1328.2188,523.9219 L1328.2188,526.6406 Z "/><text fill="#000000" font-family="sans-serif" font-size="12" lengthAdjust="spacingAndGlyphs" textLength="41" x="1345.75" y="525.1543">Helper</text><line style="stroke: #A80036; stroke-width: 1.5;" x1="1178.5" x2="1521.5" y1="537" y2="537"/><line style="stroke: #A80036; stroke-width: 1.5;" x1="1178.5" x2="1521.5" y1="545" y2="545"/><text fill="#000000" font-family="sans-serif" font-size="11" lengthAdjust="spacingAndGlyphs" text-decoration="underline" textLength="163" x="1183.5" y="559.2104">get_help(cls, user: str) -&gt; str</text><line style="stroke: #000000; stroke-width: 1.0;" x1="1183.5" x2="1346.5" y1="561.2104" y2="561.2104"/><text fill="#000000" font-family="sans-serif" font-size="11" lengthAdjust="spacingAndGlyphs" text-decoration="underline" textLength="333" x="1183.5" y="572.0151">extend_command_docs(cls, docs: List[Tuple[str]]) -&gt; None:</text><line style="stroke: #000000; stroke-width: 1.0;" x1="1183.5" x2="1516.5" y1="574.0151" y2="574.0151"/><!--class lib.Response--><rect fill="#FEFECE" filter="url(#f120w8d197js9h)" height="124.8281" id="lib.Response" style="stroke: #A80036; stroke-width: 1.5;" width="446" x="861" y="659"/><ellipse cx="1048.75" cy="675" fill="#ADD1B2" rx="11" ry="11" style="stroke: #A80036; stroke-width: 1.0;"/><path d="M1051.7188,680.6406 Q1051.1406,680.9375 1050.5,681.0781 Q1049.8594,681.2344 1049.1563,681.2344 Q1046.6563,681.2344 1045.3281,679.5938 Q1044.0156,677.9375 1044.0156,674.8125 Q1044.0156,671.6875 1045.3281,670.0313 Q1046.6563,668.375 1049.1563,668.375 Q1049.8594,668.375 1050.5,668.5313 Q1051.1563,668.6875 1051.7188,668.9844 L1051.7188,671.7031 Q1051.0938,671.125 1050.5,670.8594 Q1049.9063,670.5781 1049.2813,670.5781 Q1047.9375,670.5781 1047.25,671.6563 Q1046.5625,672.7188 1046.5625,674.8125 Q1046.5625,676.9063 1047.25,677.9844 Q1047.9375,679.0469 1049.2813,679.0469 Q1049.9063,679.0469 1050.5,678.7813 Q1051.0938,678.5 1051.7188,677.9219 L1051.7188,680.6406 Z "/><text fill="#000000" font-family="sans-serif" font-size="12" lengthAdjust="spacingAndGlyphs" textLength="62" x="1069.25" y="679.1543">Response</text><line style="stroke: #A80036; stroke-width: 1.5;" x1="862" x2="1306" y1="691" y2="691"/><line style="stroke: #A80036; stroke-width: 1.5;" x1="862" x2="1306" y1="699" y2="699"/><text fill="#000000" font-family="sans-serif" font-size="11" lengthAdjust="spacingAndGlyphs" text-decoration="underline" textLength="374" x="867" y="713.2104">admin_err(cls, message: Dict[str, Any]) -&gt; Tuple[str, Dict[str, Any]]</text><line style="stroke: #000000; stroke-width: 1.0;" x1="867" x2="1241" y1="715.2104" y2="715.2104"/><text fill="#000000" font-family="sans-serif" font-size="11" lengthAdjust="spacingAndGlyphs" text-decoration="underline" textLength="434" x="867" y="726.0151">command_not_found(cls, message: Dict[str, Any]) -&gt; Tuple[str, Dict[str, Any]]</text><line style="stroke: #000000; stroke-width: 1.0;" x1="867" x2="1301" y1="728.0151" y2="728.0151"/><text fill="#000000" font-family="sans-serif" font-size="11" lengthAdjust="spacingAndGlyphs" text-decoration="underline" textLength="345" x="867" y="738.8198">error(cls, message: Dict[str, Any]) -&gt; Tuple[str, Dict[str, Any]]</text><line style="stroke: #000000; stroke-width: 1.0;" x1="867" x2="1212" y1="740.8198" y2="740.8198"/><text fill="#000000" font-family="sans-serif" font-size="11" lengthAdjust="spacingAndGlyphs" text-decoration="underline" textLength="370" x="867" y="751.6245">exception(cls, message: Dict[str, Any]) -&gt; Tuple[str, Dict[str, Any]]</text><line style="stroke: #000000; stroke-width: 1.0;" x1="867" x2="1237" y1="753.6245" y2="753.6245"/><text fill="#000000" font-family="sans-serif" font-size="11" lengthAdjust="spacingAndGlyphs" text-decoration="underline" textLength="346" x="867" y="764.4292">greet(cls, message: Dict[str, Any]) -&gt; Tuple[str, Dict[str, Any]]</text><line style="stroke: #000000; stroke-width: 1.0;" x1="867" x2="1213" y1="766.4292" y2="766.4292"/><text fill="#000000" font-family="sans-serif" font-size="11" lengthAdjust="spacingAndGlyphs" text-decoration="underline" textLength="329" x="867" y="777.2339">ok(cls, message: Dict[str, Any]) -&gt; Tuple[str, Dict[str, Any]]</text><line style="stroke: #000000; stroke-width: 1.0;" x1="867" x2="1196" y1="779.2339" y2="779.2339"/><!--class lib.Regex--><rect fill="#FEFECE" filter="url(#f120w8d197js9h)" height="99.2188" id="lib.Regex" style="stroke: #A80036; stroke-width: 1.5;" width="126" x="541" y="672"/><ellipse cx="581.2" cy="688" fill="#EB937F" rx="11" ry="11" style="stroke: #A80036; stroke-width: 1.0;"/><path d="M585.3094,694 L577.5906,694 L577.5906,681.6094 L585.3094,681.6094 L585.3094,683.7656 L580.0438,683.7656 L580.0438,686.4375 L584.8094,686.4375 L584.8094,688.5938 L580.0438,688.5938 L580.0438,691.8438 L585.3094,691.8438 L585.3094,694 Z "/><text fill="#000000" font-family="sans-serif" font-size="12" lengthAdjust="spacingAndGlyphs" textLength="38" x="600.8" y="692.1543">Regex</text><line style="stroke: #A80036; stroke-width: 1.5;" x1="542" x2="666" y1="704" y2="704"/><text fill="#000000" font-family="sans-serif" font-size="11" lengthAdjust="spacingAndGlyphs" text-decoration="underline" textLength="45" x="547" y="718.2104">FILE: str</text><line style="stroke: #000000; stroke-width: 1.0;" x1="547" x2="592" y1="720.2104" y2="720.2104"/><text fill="#000000" font-family="sans-serif" font-size="11" lengthAdjust="spacingAndGlyphs" text-decoration="underline" textLength="102" x="547" y="731.0151">FILE_CAPTURE: str</text><line style="stroke: #000000; stroke-width: 1.0;" x1="547" x2="649" y1="733.0151" y2="733.0151"/><text fill="#000000" font-family="sans-serif" font-size="11" lengthAdjust="spacingAndGlyphs" text-decoration="underline" textLength="114" x="547" y="743.8198">OPT_ASTERISKS: str</text><line style="stroke: #000000; stroke-width: 1.0;" x1="547" x2="661" y1="745.8198" y2="745.8198"/><text fill="#000000" font-family="sans-serif" font-size="11" lengthAdjust="spacingAndGlyphs" text-decoration="underline" textLength="68" x="547" y="756.6245">STREAM: str</text><line style="stroke: #000000; stroke-width: 1.0;" x1="547" x2="615" y1="758.6245" y2="758.6245"/><line style="stroke: #A80036; stroke-width: 1.5;" x1="542" x2="666" y1="763.2188" y2="763.2188"/><!--class lib.ResponseType--><rect fill="#FEFECE" filter="url(#f120w8d197js9h)" height="86.4141" id="lib.ResponseType" style="stroke: #A80036; stroke-width: 1.5;" width="123" x="702.5" y="678.5"/><ellipse cx="717.5" cy="694.5" fill="#EB937F" rx="11" ry="11" style="stroke: #A80036; stroke-width: 1.0;"/><path d="M721.6094,700.5 L713.8906,700.5 L713.8906,688.1094 L721.6094,688.1094 L721.6094,690.2656 L716.3438,690.2656 L716.3438,692.9375 L721.1094,692.9375 L721.1094,695.0938 L716.3438,695.0938 L716.3438,698.3438 L721.6094,698.3438 L721.6094,700.5 Z "/><text fill="#000000" font-family="sans-serif" font-size="12" lengthAdjust="spacingAndGlyphs" textLength="91" x="731.5" y="698.6543">ResponseType</text><line style="stroke: #A80036; stroke-width: 1.5;" x1="703.5" x2="824.5" y1="710.5" y2="710.5"/><text fill="#000000" font-family="sans-serif" font-size="11" lengthAdjust="spacingAndGlyphs" text-decoration="underline" textLength="78" x="708.5" y="724.7104">MESSAGE: str</text><line style="stroke: #000000; stroke-width: 1.0;" x1="708.5" x2="786.5" y1="726.7104" y2="726.7104"/><text fill="#000000" font-family="sans-serif" font-size="11" lengthAdjust="spacingAndGlyphs" text-decoration="underline" textLength="54" x="708.5" y="737.5151">EMOJI: str</text><line style="stroke: #000000; stroke-width: 1.0;" x1="708.5" x2="762.5" y1="739.5151" y2="739.5151"/><text fill="#000000" font-family="sans-serif" font-size="11" lengthAdjust="spacingAndGlyphs" text-decoration="underline" textLength="55" x="708.5" y="750.3198">NONE: str</text><line style="stroke: #000000; stroke-width: 1.0;" x1="708.5" x2="763.5" y1="752.3198" y2="752.3198"/><line style="stroke: #A80036; stroke-width: 1.5;" x1="703.5" x2="824.5" y1="756.9141" y2="756.9141"/><!--link command.Command to commands.example.Command--><path d="M1013.78,177.05 C1002.83,203.28 990.45,232.93 980.04,257.83 " fill="none" id="command.Command-commands.example.Command" style="stroke: #A80036; stroke-width: 1.0;"/><polygon fill="none" points="1007.47,174,1021.64,158.24,1020.39,179.4,1007.47,174" style="stroke: #A80036; stroke-width: 1.0;"/><!--link lib.StrEnum to lib.Regex--><path d="M588.89,586.38 C591.8,612.23 595.5,645.1 598.52,671.84 " fill="none" id="lib.StrEnum-lib.Regex" style="stroke: #A80036; stroke-width: 1.0;"/><polygon fill="none" points="581.9,586.86,586.61,566.21,595.81,585.3,581.9,586.86" style="stroke: #A80036; stroke-width: 1.0;"/><!--link lib.StrEnum to lib.ResponseType--><path d="M621.99,580.46 C651,609.07 691,648.51 721.15,678.25 " fill="none" id="lib.StrEnum-lib.ResponseType" style="stroke: #A80036; stroke-width: 1.0;"/><polygon fill="none" points="616.86,585.23,607.53,566.21,626.69,575.26,616.86,585.23" style="stroke: #A80036; stroke-width: 1.0;"/><!--link tumcsbot.TumCSBot to command.Command--><path d="M686.81,108.5 C718.69,108.5 750.71,108.5 781.76,108.5 " fill="none" id="tumcsbot.TumCSBot-command.Command" style="stroke: #A80036; stroke-width: 1.0;"/><polygon fill="#FFFFFF" points="673.65,108.5,679.65,112.5,685.65,108.5,679.65,104.5,673.65,108.5" style="stroke: #A80036; stroke-width: 1.0;"/><text fill="#000000" font-family="sans-serif" font-size="13" lengthAdjust="spacingAndGlyphs" textLength="72" x="691.75" y="101.5669">commands</text><text fill="#000000" font-family="sans-serif" font-size="13" lengthAdjust="spacingAndGlyphs" textLength="7" x="766.9302" y="105.343">*</text><!--link tumcsbot.TumCSBot to lib--><path d="M366.31,139.16 C383.12,187.525 417.63,286.8 448.1413,374.5687 C463.3969,418.4531 477.6528,459.4609 488.1967,489.7902 C490.8327,497.3725 493.2367,504.2874 495.3663,510.4129 C495.8987,511.9443 496.4139,513.4264 496.9113,514.8572 C497.1601,515.5726 497.4043,516.2752 497.6441,516.9648 " fill="none" id="tumcsbot.TumCSBot-lib" style="stroke: #A80036; stroke-width: 1.0;"/><polygon fill="#A80036" points="497.6441,516.9648,498.4668,507.1503,496.0022,512.242,490.9105,509.7774,497.6441,516.9648" style="stroke: #A80036; stroke-width: 1.0;"/><!--link commands.example to lib--><path d="M652.7439,319.044 C652.5173,319.1594 652.2867,319.2772 652.0519,319.3974 C651.5825,319.6379 651.0969,319.8878 650.5957,320.1473 C648.5909,321.1851 646.3367,322.3746 643.8689,323.7109 C633.9978,329.0563 620.7106,336.7513 606.3113,346.49 C577.5125,365.9675 544.265,393.62 525,427 C523.42,429.7369 521.9625,432.5685 520.6184,435.4728 C519.9464,436.9249 519.3027,438.3953 518.6862,439.881 C518.378,440.6239 518.0765,441.3707 517.7817,442.1209 C517.708,442.3085 517.6348,442.4963 517.5619,442.6843 " fill="none" id="commands.example-lib" style="stroke: #A80036; stroke-width: 1.0;"/><polygon fill="#A80036" points="517.5619,442.6843,524.544,435.738,519.3688,438.0222,517.0847,432.847,517.5619,442.6843" style="stroke: #A80036; stroke-width: 1.0;"/><!--link lib.DB to lib.Helper--><!--link lib.DB to lib.Response--><!--
@startuml

class tumcsbot.TumCSBot {
    __init__(self, zuliprc: str, db_path: str, debug: bool = False, logfile: Optional[str] = None, **kwargs: str) -> None
}

class commands.example.Command extends command.Command {
{static} name: str
{static} syntax: str
{static} description: str
__init__(self, **kwargs) -> None
func(self, client: zulip.Client, message: Dict[str, Any], **kwargs) -> Tuple[str, Dict[str, Any]]
}

abstract class command.Command {
{abstract} __init__(self, **kwargs) -> None
{abstract} func(self, client: zulip.Client, message: Dict[str, Any], **kwargs) -> Tuple[str, Dict[str, Any]]
get_usage(self) -> Tuple[str, str]
is_responsible(self, message: Dict[str, Any]) -> bool
}

class lib.StrEnum

class lib.DB {
{static} path: Optional[str] = None
__init__(self) -> None
checkout_table(self, table: str, schema: str) -> None
checkout_row(self, table: str, key_column: str, key: str, default_values: str) -> None
execute(self, command: str, commit: bool = False) -> List[Tuple[Any, ...]]
}

class lib.Helper {
{static} get_help(cls, user: str) -> str
{static} extend_command_docs(cls, docs: List[Tuple[str]]) -> None:
}

class lib.Response {
{static} admin_err(cls, message: Dict[str, Any]) -> Tuple[str, Dict[str, Any]]
{static} command_not_found(cls, message: Dict[str, Any]) -> Tuple[str, Dict[str, Any]]
{static} error(cls, message: Dict[str, Any]) -> Tuple[str, Dict[str, Any]]
{static} exception(cls, message: Dict[str, Any]) -> Tuple[str, Dict[str, Any]]
{static} greet(cls, message: Dict[str, Any]) -> Tuple[str, Dict[str, Any]]
{static} ok(cls, message: Dict[str, Any]) -> Tuple[str, Dict[str, Any]]
}

enum lib.Regex extends lib.StrEnum {
{static} FILE: str
{static} FILE_CAPTURE: str
{static} OPT_ASTERISKS: str
{static} STREAM: str
}

enum lib.ResponseType extends lib.StrEnum {
{static} MESSAGE: str
{static} EMOJI: str
{static} NONE: str
}

tumcsbot.TumCSBot o- "*" command.Command  : commands
tumcsbot.TumCSBot -down-> lib
commands.example -down-> lib

@enduml

PlantUML version 1.2019.01(Sat Feb 09 16:32:04 CET 2019)
(LGPL source distribution)
Java Runtime: OpenJDK Runtime Environment
JVM: OpenJDK 64-Bit Server VM
Java Version: 15.0.1+9
Operating System: Linux
OS Version: 5.9.12-200.fc33.x86_64
Default Encoding: UTF-8
Language: en
Country: US
--></g></svg>