<?xml version="1.0" encoding="UTF-8" standalone="no"?><svg xmlns="http://www.w3.org/2000/svg" xmlns:xlink="http://www.w3.org/1999/xlink" contentScriptType="application/ecmascript" contentStyleType="text/css" height="630px" preserveAspectRatio="none" style="width:1555px;height:630px;" version="1.1" viewBox="0 0 1555 630" width="1555px" zoomAndPan="magnify"><defs><filter height="300%" id="f10no9b7tuzcn4" width="300%" x="-1" y="-1"><feGaussianBlur result="blurOut" stdDeviation="2.0"/><feColorMatrix in="blurOut" result="blurOut2" type="matrix" values="0 0 0 0 0 0 0 0 0 0 0 0 0 0 0 0 0 0 .4 0"/><feOffset dx="4.0" dy="4.0" in="blurOut2" result="blurOut3"/><feBlend in="SourceGraphic" in2="blurOut3" mode="normal"/></filter></defs><g><!--cluster tumcsbot--><polygon fill="#FFFFFF" filter="url(#f10no9b7tuzcn4)" points="422,24,502,24,509,46.2969,936,46.2969,936,149,422,149,422,24" style="stroke: #000000; stroke-width: 1.5;"/><line style="stroke: #000000; stroke-width: 1.5;" x1="422" x2="509" y1="46.2969" y2="46.2969"/><text fill="#000000" font-family="sans-serif" font-size="14" font-weight="bold" lengthAdjust="spacingAndGlyphs" textLength="74" x="426" y="38.9951">tumcsbot</text><!--cluster commands.example--><polygon fill="#FFFFFF" filter="url(#f10no9b7tuzcn4)" points="402,468,564,468,571,490.2969,956,490.2969,956,618,402,618,402,468" style="stroke: #000000; stroke-width: 1.5;"/><line style="stroke: #000000; stroke-width: 1.5;" x1="402" x2="571" y1="490.2969" y2="490.2969"/><text fill="#000000" font-family="sans-serif" font-size="14" font-weight="bold" lengthAdjust="spacingAndGlyphs" textLength="156" x="406" y="482.9951">commands.example</text><!--cluster commands.debug.example--><polygon fill="#FFFFFF" filter="url(#f10no9b7tuzcn4)" points="979,319,1196,319,1203,341.2969,1533,341.2969,1533,444,979,444,979,319" style="stroke: #000000; stroke-width: 1.5;"/><line style="stroke: #000000; stroke-width: 1.5;" x1="979" x2="1203" y1="341.2969" y2="341.2969"/><text fill="#000000" font-family="sans-serif" font-size="14" font-weight="bold" lengthAdjust="spacingAndGlyphs" textLength="211" x="983" y="333.9951">commands.debug.example</text><!--cluster lib--><polygon fill="#FFFFFF" filter="url(#f10no9b7tuzcn4)" points="22,173,46,173,53,195.2969,955,195.2969,955,437.5,22,437.5,22,173" style="stroke: #000000; stroke-width: 1.5;"/><line style="stroke: #000000; stroke-width: 1.5;" x1="22" x2="53" y1="195.2969" y2="195.2969"/><text fill="#000000" font-family="sans-serif" font-size="14" font-weight="bold" lengthAdjust="spacingAndGlyphs" textLength="18" x="26" y="187.9951">lib</text><!--class tumcsbot.TumCSBot--><rect fill="#FEFECE" filter="url(#f10no9b7tuzcn4)" height="73.6094" id="tumcsbot.TumCSBot" style="stroke: #A80036; stroke-width: 1.5;" width="482" x="438" y="59"/><ellipse cx="643.25" cy="75" fill="#ADD1B2" rx="11" ry="11" style="stroke: #A80036; stroke-width: 1.0;"/><path d="M646.2188,80.6406 Q645.6406,80.9375 645,81.0781 Q644.3594,81.2344 643.6563,81.2344 Q641.1563,81.2344 639.8281,79.5938 Q638.5156,77.9375 638.5156,74.8125 Q638.5156,71.6875 639.8281,70.0313 Q641.1563,68.375 643.6563,68.375 Q644.3594,68.375 645,68.5313 Q645.6563,68.6875 646.2188,68.9844 L646.2188,71.7031 Q645.5938,71.125 645,70.8594 Q644.4063,70.5781 643.7813,70.5781 Q642.4375,70.5781 641.75,71.6563 Q641.0625,72.7188 641.0625,74.8125 Q641.0625,76.9063 641.75,77.9844 Q642.4375,79.0469 643.7813,79.0469 Q644.4063,79.0469 645,78.7813 Q645.5938,78.5 646.2188,77.9219 L646.2188,80.6406 Z "/><text fill="#000000" font-family="sans-serif" font-size="12" lengthAdjust="spacingAndGlyphs" textLength="63" x="663.75" y="79.1543">TumCSBot</text><line style="stroke: #A80036; stroke-width: 1.5;" x1="439" x2="919" y1="91" y2="91"/><line style="stroke: #A80036; stroke-width: 1.5;" x1="439" x2="919" y1="99" y2="99"/><text fill="#000000" font-family="sans-serif" font-size="11" lengthAdjust="spacingAndGlyphs" textLength="470" x="444" y="113.2104">__init__(self, zuliprc: str, debug: bool = False, logfile: str = None, **kwargs) -&gt; None</text><text fill="#000000" font-family="sans-serif" font-size="11" lengthAdjust="spacingAndGlyphs" textLength="104" x="444" y="126.0151">start(self) -&gt; None</text><!--class commands.example.Command--><rect fill="#FEFECE" filter="url(#f10no9b7tuzcn4)" height="99.2188" id="commands.example.Command" style="stroke: #A80036; stroke-width: 1.5;" width="522" x="418" y="503"/><ellipse cx="643.75" cy="519" fill="#ADD1B2" rx="11" ry="11" style="stroke: #A80036; stroke-width: 1.0;"/><path d="M646.7188,524.6406 Q646.1406,524.9375 645.5,525.0781 Q644.8594,525.2344 644.1563,525.2344 Q641.6563,525.2344 640.3281,523.5938 Q639.0156,521.9375 639.0156,518.8125 Q639.0156,515.6875 640.3281,514.0313 Q641.6563,512.375 644.1563,512.375 Q644.8594,512.375 645.5,512.5313 Q646.1563,512.6875 646.7188,512.9844 L646.7188,515.7031 Q646.0938,515.125 645.5,514.8594 Q644.9063,514.5781 644.2813,514.5781 Q642.9375,514.5781 642.25,515.6563 Q641.5625,516.7188 641.5625,518.8125 Q641.5625,520.9063 642.25,521.9844 Q642.9375,523.0469 644.2813,523.0469 Q644.9063,523.0469 645.5,522.7813 Q646.0938,522.5 646.7188,521.9219 L646.7188,524.6406 Z "/><text fill="#000000" font-family="sans-serif" font-size="12" lengthAdjust="spacingAndGlyphs" textLength="62" x="664.25" y="523.1543">Command</text><line style="stroke: #A80036; stroke-width: 1.5;" x1="419" x2="939" y1="535" y2="535"/><text fill="#000000" font-family="sans-serif" font-size="11" lengthAdjust="spacingAndGlyphs" text-decoration="underline" textLength="60" x="424" y="549.2104">syntax: str</text><line style="stroke: #000000; stroke-width: 1.0;" x1="424" x2="484" y1="551.2104" y2="551.2104"/><text fill="#000000" font-family="sans-serif" font-size="11" lengthAdjust="spacingAndGlyphs" text-decoration="underline" textLength="86" x="424" y="562.0151">description: str</text><line style="stroke: #000000; stroke-width: 1.0;" x1="424" x2="510" y1="564.0151" y2="564.0151"/><line style="stroke: #A80036; stroke-width: 1.5;" x1="419" x2="939" y1="568.6094" y2="568.6094"/><text fill="#000000" font-family="sans-serif" font-size="11" lengthAdjust="spacingAndGlyphs" textLength="178" x="424" y="582.8198">__init__(self, **kwargs) -&gt; None</text><text fill="#000000" font-family="sans-serif" font-size="11" lengthAdjust="spacingAndGlyphs" textLength="510" x="424" y="595.6245">func(self, client: zulip.Client, message: Dict[str, Any], **kwargs) -&gt; Tuple[str, Dict[str, Any]]</text><!--class commands.debug.example.Command--><rect fill="#FEFECE" filter="url(#f10no9b7tuzcn4)" height="73.6094" id="commands.debug.example.Command" style="stroke: #A80036; stroke-width: 1.5;" width="522" x="995" y="354"/><ellipse cx="1220.75" cy="370" fill="#ADD1B2" rx="11" ry="11" style="stroke: #A80036; stroke-width: 1.0;"/><path d="M1223.7188,375.6406 Q1223.1406,375.9375 1222.5,376.0781 Q1221.8594,376.2344 1221.1563,376.2344 Q1218.6563,376.2344 1217.3281,374.5938 Q1216.0156,372.9375 1216.0156,369.8125 Q1216.0156,366.6875 1217.3281,365.0313 Q1218.6563,363.375 1221.1563,363.375 Q1221.8594,363.375 1222.5,363.5313 Q1223.1563,363.6875 1223.7188,363.9844 L1223.7188,366.7031 Q1223.0938,366.125 1222.5,365.8594 Q1221.9063,365.5781 1221.2813,365.5781 Q1219.9375,365.5781 1219.25,366.6563 Q1218.5625,367.7188 1218.5625,369.8125 Q1218.5625,371.9063 1219.25,372.9844 Q1219.9375,374.0469 1221.2813,374.0469 Q1221.9063,374.0469 1222.5,373.7813 Q1223.0938,373.5 1223.7188,372.9219 L1223.7188,375.6406 Z "/><text fill="#000000" font-family="sans-serif" font-size="12" lengthAdjust="spacingAndGlyphs" textLength="62" x="1241.25" y="374.1543">Command</text><line style="stroke: #A80036; stroke-width: 1.5;" x1="996" x2="1516" y1="386" y2="386"/><line style="stroke: #A80036; stroke-width: 1.5;" x1="996" x2="1516" y1="394" y2="394"/><text fill="#000000" font-family="sans-serif" font-size="11" lengthAdjust="spacingAndGlyphs" textLength="178" x="1001" y="408.2104">__init__(self, **kwargs) -&gt; None</text><text fill="#000000" font-family="sans-serif" font-size="11" lengthAdjust="spacingAndGlyphs" textLength="510" x="1001" y="421.0151">func(self, client: zulip.Client, message: Dict[str, Any], **kwargs) -&gt; Tuple[str, Dict[str, Any]]</text><!--class lib.BaseCommand--><rect fill="#FEFECE" filter="url(#f10no9b7tuzcn4)" height="86.4141" id="lib.BaseCommand" style="stroke: #A80036; stroke-width: 1.5;" width="520" x="419" y="208"/><ellipse cx="631.25" cy="224" fill="#A9DCDF" rx="11" ry="11" style="stroke: #A80036; stroke-width: 1.0;"/><path d="M631.3594,219.3438 L630.2031,224.4219 L632.5313,224.4219 L631.3594,219.3438 Z M629.875,217.1094 L632.8594,217.1094 L636.2188,229.5 L633.7656,229.5 L633,226.4375 L629.7188,226.4375 L628.9688,229.5 L626.5313,229.5 L629.875,217.1094 Z "/><text fill="#000000" font-family="sans-serif" font-size="12" font-style="italic" lengthAdjust="spacingAndGlyphs" textLength="87" x="651.75" y="228.1543">BaseCommand</text><line style="stroke: #A80036; stroke-width: 1.5;" x1="420" x2="938" y1="240" y2="240"/><line style="stroke: #A80036; stroke-width: 1.5;" x1="420" x2="938" y1="248" y2="248"/><text fill="#000000" font-family="sans-serif" font-size="11" font-style="italic" lengthAdjust="spacingAndGlyphs" textLength="176" x="425" y="262.2104">__init__(self, **kwargs) -&gt; None</text><text fill="#000000" font-family="sans-serif" font-size="11" font-style="italic" lengthAdjust="spacingAndGlyphs" textLength="508" x="425" y="275.0151">func(self, client: zulip.Client, message: Dict[str, Any], **kwargs) -&gt; Tuple[str, Dict[str, Any]]</text><text fill="#000000" font-family="sans-serif" font-size="11" lengthAdjust="spacingAndGlyphs" textLength="294" x="425" y="287.8198">is_responsible(self, message: Dict[str, Any]) -&gt; bool</text><!--class lib.Command--><rect fill="#FEFECE" filter="url(#f10no9b7tuzcn4)" height="60.8047" id="lib.Command" style="stroke: #A80036; stroke-width: 1.5;" width="197" x="580.5" y="360.5"/><ellipse cx="645.25" cy="376.5" fill="#A9DCDF" rx="11" ry="11" style="stroke: #A80036; stroke-width: 1.0;"/><path d="M645.3594,371.8438 L644.2031,376.9219 L646.5313,376.9219 L645.3594,371.8438 Z M643.875,369.6094 L646.8594,369.6094 L650.2188,382 L647.7656,382 L647,378.9375 L643.7188,378.9375 L642.9688,382 L640.5313,382 L643.875,369.6094 Z "/><text fill="#000000" font-family="sans-serif" font-size="12" font-style="italic" lengthAdjust="spacingAndGlyphs" textLength="59" x="665.75" y="380.6543">Command</text><line style="stroke: #A80036; stroke-width: 1.5;" x1="581.5" x2="776.5" y1="392.5" y2="392.5"/><line style="stroke: #A80036; stroke-width: 1.5;" x1="581.5" x2="776.5" y1="400.5" y2="400.5"/><text fill="#000000" font-family="sans-serif" font-size="11" lengthAdjust="spacingAndGlyphs" textLength="185" x="586.5" y="414.7104">get_usage(self) -&gt; Tuple[str, str]</text><!--class lib.Helper--><rect fill="#FEFECE" filter="url(#f10no9b7tuzcn4)" height="73.6094" id="lib.Helper" style="stroke: #A80036; stroke-width: 1.5;" width="345" x="38.5" y="214"/><ellipse cx="186.25" cy="230" fill="#ADD1B2" rx="11" ry="11" style="stroke: #A80036; stroke-width: 1.0;"/><path d="M189.2188,235.6406 Q188.6406,235.9375 188,236.0781 Q187.3594,236.2344 186.6563,236.2344 Q184.1563,236.2344 182.8281,234.5938 Q181.5156,232.9375 181.5156,229.8125 Q181.5156,226.6875 182.8281,225.0313 Q184.1563,223.375 186.6563,223.375 Q187.3594,223.375 188,223.5313 Q188.6563,223.6875 189.2188,223.9844 L189.2188,226.7031 Q188.5938,226.125 188,225.8594 Q187.4063,225.5781 186.7813,225.5781 Q185.4375,225.5781 184.75,226.6563 Q184.0625,227.7188 184.0625,229.8125 Q184.0625,231.9063 184.75,232.9844 Q185.4375,234.0469 186.7813,234.0469 Q187.4063,234.0469 188,233.7813 Q188.5938,233.5 189.2188,232.9219 L189.2188,235.6406 Z "/><text fill="#000000" font-family="sans-serif" font-size="12" lengthAdjust="spacingAndGlyphs" textLength="41" x="206.75" y="234.1543">Helper</text><line style="stroke: #A80036; stroke-width: 1.5;" x1="39.5" x2="382.5" y1="246" y2="246"/><line style="stroke: #A80036; stroke-width: 1.5;" x1="39.5" x2="382.5" y1="254" y2="254"/><text fill="#000000" font-family="sans-serif" font-size="11" lengthAdjust="spacingAndGlyphs" text-decoration="underline" textLength="163" x="44.5" y="268.2104">get_help(cls, user: str) -&gt; str</text><line style="stroke: #000000; stroke-width: 1.0;" x1="44.5" x2="207.5" y1="270.2104" y2="270.2104"/><text fill="#000000" font-family="sans-serif" font-size="11" lengthAdjust="spacingAndGlyphs" text-decoration="underline" textLength="333" x="44.5" y="281.0151">extend_command_docs(cls, docs: List[Tuple[str]]) -&gt; None:</text><line style="stroke: #000000; stroke-width: 1.0;" x1="44.5" x2="377.5" y1="283.0151" y2="283.0151"/><!--link tumcsbot.TumCSBot to lib.BaseCommand--><path d="M679,146.43 C679,166.21 679,188.77 679,207.77 " fill="none" id="tumcsbot.TumCSBot-lib.BaseCommand" style="stroke: #A80036; stroke-width: 1.0;"/><polygon fill="#A80036" points="679,133.26,675,139.26,679,145.26,683,139.26,679,133.26" style="stroke: #A80036; stroke-width: 1.0;"/><text fill="#000000" font-family="sans-serif" font-size="13" lengthAdjust="spacingAndGlyphs" textLength="7" x="671.4641" y="197.0473">*</text><!--link lib.BaseCommand to lib.Command--><path d="M679,314.29 C679,330.33 679,346.85 679,360.35 " fill="none" id="lib.BaseCommand-lib.Command" style="stroke: #A80036; stroke-width: 1.0;"/><polygon fill="none" points="672,314.15,679,294.15,686,314.15,672,314.15" style="stroke: #A80036; stroke-width: 1.0;"/><!--link lib.Command to commands.example.Command--><path d="M679,441.77 C679,461.26 679,483.55 679,502.92 " fill="none" id="lib.Command-commands.example.Command" style="stroke: #A80036; stroke-width: 1.0;"/><polygon fill="none" points="672,441.63,679,421.63,686,441.63,672,441.63" style="stroke: #A80036; stroke-width: 1.0;"/><!--link lib.BaseCommand to commands.debug.example.Command--><path d="M900.5,298.41 C918.96,302.56 937.32,306.79 955,311 C1010.58,324.23 1071.61,340.01 1124.09,353.97 " fill="none" id="lib.BaseCommand-commands.debug.example.Command" style="stroke: #A80036; stroke-width: 1.0;"/><polygon fill="none" points="898.85,305.21,880.85,294.03,901.9,291.55,898.85,305.21" style="stroke: #A80036; stroke-width: 1.0;"/><!--
@startuml

class tumcsbot.TumCSBot {
    __init__(self, zuliprc: str, debug: bool = False, logfile: str = None, **kwargs) -> None
start(self) -> None
}

class commands.example.Command {
{static} syntax: str
{static} description: str
__init__(self, **kwargs) -> None
func(self, client: zulip.Client, message: Dict[str, Any], **kwargs) -> Tuple[str, Dict[str, Any]]
}

class commands.debug.example.Command {
__init__(self, **kwargs) -> None
func(self, client: zulip.Client, message: Dict[str, Any], **kwargs) -> Tuple[str, Dict[str, Any]]
}

abstract class lib.BaseCommand {
{abstract} __init__(self, **kwargs) -> None
{abstract} func(self, client: zulip.Client, message: Dict[str, Any], **kwargs) -> Tuple[str, Dict[str, Any]]
is_responsible(self, message: Dict[str, Any]) -> bool
}

abstract class lib.Command {
get_usage(self) -> Tuple[str, str]
}

class lib.Helper {
{static} get_help(cls, user: str) -> str
{static} extend_command_docs(cls, docs: List[Tuple[str]]) -> None:
}

tumcsbot.TumCSBot *- - "*" lib.BaseCommand
lib.BaseCommand <|- - lib.Command
lib.Command <|- -commands.example.Command
lib.BaseCommand <|- - commands.debug.example.Command

@enduml

PlantUML version 1.2019.01(Sat Feb 09 16:32:04 CET 2019)
(LGPL source distribution)
Java Runtime: OpenJDK Runtime Environment
JVM: OpenJDK 64-Bit Server VM
Java Version: 15+36
Operating System: Linux
OS Version: 5.8.12-200.fc32.x86_64
Default Encoding: UTF-8
Language: en
Country: US
--></g></svg>