<?xml version="1.0" encoding="UTF-8" standalone="no"?><svg xmlns="http://www.w3.org/2000/svg" xmlns:xlink="http://www.w3.org/1999/xlink" contentScriptType="application/ecmascript" contentStyleType="text/css" height="468px" preserveAspectRatio="none" style="width:1515px;height:468px;" version="1.1" viewBox="0 0 1515 468" width="1515px" zoomAndPan="magnify"><defs><filter height="300%" id="f9pvyadrueftj" width="300%" x="-1" y="-1"><feGaussianBlur result="blurOut" stdDeviation="2.0"/><feColorMatrix in="blurOut" result="blurOut2" type="matrix" values="0 0 0 0 0 0 0 0 0 0 0 0 0 0 0 0 0 0 .4 0"/><feOffset dx="4.0" dy="4.0" in="blurOut2" result="blurOut3"/><feBlend in="SourceGraphic" in2="blurOut3" mode="normal"/></filter></defs><g><!--cluster tumcsbot--><polygon fill="#FFFFFF" filter="url(#f9pvyadrueftj)" points="22,30,102,30,109,52.2969,536,52.2969,536,155,22,155,22,30" style="stroke: #000000; stroke-width: 1.5;"/><line style="stroke: #000000; stroke-width: 1.5;" x1="22" x2="109" y1="52.2969" y2="52.2969"/><text fill="#000000" font-family="sans-serif" font-size="14" font-weight="bold" lengthAdjust="spacingAndGlyphs" textLength="74" x="26" y="44.9951">tumcsbot</text><!--cluster commands.example1--><polygon fill="#FFFFFF" filter="url(#f9pvyadrueftj)" points="141,306,313,306,320,328.2969,695,328.2969,695,456,141,456,141,306" style="stroke: #000000; stroke-width: 1.5;"/><line style="stroke: #000000; stroke-width: 1.5;" x1="141" x2="320" y1="328.2969" y2="328.2969"/><text fill="#000000" font-family="sans-serif" font-size="14" font-weight="bold" lengthAdjust="spacingAndGlyphs" textLength="166" x="145" y="320.9951">commands.example1</text><!--cluster commands.example2--><polygon fill="#FFFFFF" filter="url(#f9pvyadrueftj)" points="719,306,891,306,898,328.2969,1273,328.2969,1273,456,719,456,719,306" style="stroke: #000000; stroke-width: 1.5;"/><line style="stroke: #000000; stroke-width: 1.5;" x1="719" x2="898" y1="328.2969" y2="328.2969"/><text fill="#000000" font-family="sans-serif" font-size="14" font-weight="bold" lengthAdjust="spacingAndGlyphs" textLength="166" x="723" y="320.9951">commands.example2</text><!--cluster lib--><polygon fill="#FFFFFF" filter="url(#f9pvyadrueftj)" points="560,24,584,24,591,46.2969,1493,46.2969,1493,282,560,282,560,24" style="stroke: #000000; stroke-width: 1.5;"/><line style="stroke: #000000; stroke-width: 1.5;" x1="560" x2="591" y1="46.2969" y2="46.2969"/><text fill="#000000" font-family="sans-serif" font-size="14" font-weight="bold" lengthAdjust="spacingAndGlyphs" textLength="18" x="564" y="38.9951">lib</text><!--class tumcsbot.TumCSBot--><rect fill="#FEFECE" filter="url(#f9pvyadrueftj)" height="73.6094" id="tumcsbot.TumCSBot" style="stroke: #A80036; stroke-width: 1.5;" width="482" x="38" y="65"/><ellipse cx="243.25" cy="81" fill="#ADD1B2" rx="11" ry="11" style="stroke: #A80036; stroke-width: 1.0;"/><path d="M246.2188,86.6406 Q245.6406,86.9375 245,87.0781 Q244.3594,87.2344 243.6563,87.2344 Q241.1563,87.2344 239.8281,85.5938 Q238.5156,83.9375 238.5156,80.8125 Q238.5156,77.6875 239.8281,76.0313 Q241.1563,74.375 243.6563,74.375 Q244.3594,74.375 245,74.5313 Q245.6563,74.6875 246.2188,74.9844 L246.2188,77.7031 Q245.5938,77.125 245,76.8594 Q244.4063,76.5781 243.7813,76.5781 Q242.4375,76.5781 241.75,77.6563 Q241.0625,78.7188 241.0625,80.8125 Q241.0625,82.9063 241.75,83.9844 Q242.4375,85.0469 243.7813,85.0469 Q244.4063,85.0469 245,84.7813 Q245.5938,84.5 246.2188,83.9219 L246.2188,86.6406 Z "/><text fill="#000000" font-family="sans-serif" font-size="12" lengthAdjust="spacingAndGlyphs" textLength="63" x="263.75" y="85.1543">TumCSBot</text><line style="stroke: #A80036; stroke-width: 1.5;" x1="39" x2="519" y1="97" y2="97"/><line style="stroke: #A80036; stroke-width: 1.5;" x1="39" x2="519" y1="105" y2="105"/><text fill="#000000" font-family="sans-serif" font-size="11" lengthAdjust="spacingAndGlyphs" textLength="470" x="44" y="119.2104">__init__(self, zuliprc: str, debug: bool = False, logfile: str = None, **kwargs) -&gt; None</text><text fill="#000000" font-family="sans-serif" font-size="11" lengthAdjust="spacingAndGlyphs" textLength="104" x="44" y="132.0151">start(self) -&gt; None</text><!--class commands.example1.Command--><rect fill="#FEFECE" filter="url(#f9pvyadrueftj)" height="99.2188" id="commands.example1.Command" style="stroke: #A80036; stroke-width: 1.5;" width="522" x="157" y="341"/><ellipse cx="382.75" cy="357" fill="#ADD1B2" rx="11" ry="11" style="stroke: #A80036; stroke-width: 1.0;"/><path d="M385.7188,362.6406 Q385.1406,362.9375 384.5,363.0781 Q383.8594,363.2344 383.1563,363.2344 Q380.6563,363.2344 379.3281,361.5938 Q378.0156,359.9375 378.0156,356.8125 Q378.0156,353.6875 379.3281,352.0313 Q380.6563,350.375 383.1563,350.375 Q383.8594,350.375 384.5,350.5313 Q385.1563,350.6875 385.7188,350.9844 L385.7188,353.7031 Q385.0938,353.125 384.5,352.8594 Q383.9063,352.5781 383.2813,352.5781 Q381.9375,352.5781 381.25,353.6563 Q380.5625,354.7188 380.5625,356.8125 Q380.5625,358.9063 381.25,359.9844 Q381.9375,361.0469 383.2813,361.0469 Q383.9063,361.0469 384.5,360.7813 Q385.0938,360.5 385.7188,359.9219 L385.7188,362.6406 Z "/><text fill="#000000" font-family="sans-serif" font-size="12" lengthAdjust="spacingAndGlyphs" textLength="62" x="403.25" y="361.1543">Command</text><line style="stroke: #A80036; stroke-width: 1.5;" x1="158" x2="678" y1="373" y2="373"/><text fill="#000000" font-family="sans-serif" font-size="11" lengthAdjust="spacingAndGlyphs" text-decoration="underline" textLength="60" x="163" y="387.2104">syntax: str</text><line style="stroke: #000000; stroke-width: 1.0;" x1="163" x2="223" y1="389.2104" y2="389.2104"/><text fill="#000000" font-family="sans-serif" font-size="11" lengthAdjust="spacingAndGlyphs" text-decoration="underline" textLength="86" x="163" y="400.0151">description: str</text><line style="stroke: #000000; stroke-width: 1.0;" x1="163" x2="249" y1="402.0151" y2="402.0151"/><line style="stroke: #A80036; stroke-width: 1.5;" x1="158" x2="678" y1="406.6094" y2="406.6094"/><text fill="#000000" font-family="sans-serif" font-size="11" lengthAdjust="spacingAndGlyphs" textLength="178" x="163" y="420.8198">__init__(self, **kwargs) -&gt; None</text><text fill="#000000" font-family="sans-serif" font-size="11" lengthAdjust="spacingAndGlyphs" textLength="510" x="163" y="433.6245">func(self, client: zulip.Client, message: Dict[str, Any], **kwargs) -&gt; Tuple[str, Dict[str, Any]]</text><!--class commands.example2.Command--><rect fill="#FEFECE" filter="url(#f9pvyadrueftj)" height="99.2188" id="commands.example2.Command" style="stroke: #A80036; stroke-width: 1.5;" width="522" x="735" y="341"/><ellipse cx="960.75" cy="357" fill="#ADD1B2" rx="11" ry="11" style="stroke: #A80036; stroke-width: 1.0;"/><path d="M963.7188,362.6406 Q963.1406,362.9375 962.5,363.0781 Q961.8594,363.2344 961.1563,363.2344 Q958.6563,363.2344 957.3281,361.5938 Q956.0156,359.9375 956.0156,356.8125 Q956.0156,353.6875 957.3281,352.0313 Q958.6563,350.375 961.1563,350.375 Q961.8594,350.375 962.5,350.5313 Q963.1563,350.6875 963.7188,350.9844 L963.7188,353.7031 Q963.0938,353.125 962.5,352.8594 Q961.9063,352.5781 961.2813,352.5781 Q959.9375,352.5781 959.25,353.6563 Q958.5625,354.7188 958.5625,356.8125 Q958.5625,358.9063 959.25,359.9844 Q959.9375,361.0469 961.2813,361.0469 Q961.9063,361.0469 962.5,360.7813 Q963.0938,360.5 963.7188,359.9219 L963.7188,362.6406 Z "/><text fill="#000000" font-family="sans-serif" font-size="12" lengthAdjust="spacingAndGlyphs" textLength="62" x="981.25" y="361.1543">Command</text><line style="stroke: #A80036; stroke-width: 1.5;" x1="736" x2="1256" y1="373" y2="373"/><text fill="#000000" font-family="sans-serif" font-size="11" lengthAdjust="spacingAndGlyphs" text-decoration="underline" textLength="60" x="741" y="387.2104">syntax: str</text><line style="stroke: #000000; stroke-width: 1.0;" x1="741" x2="801" y1="389.2104" y2="389.2104"/><text fill="#000000" font-family="sans-serif" font-size="11" lengthAdjust="spacingAndGlyphs" text-decoration="underline" textLength="86" x="741" y="400.0151">description: str</text><line style="stroke: #000000; stroke-width: 1.0;" x1="741" x2="827" y1="402.0151" y2="402.0151"/><line style="stroke: #A80036; stroke-width: 1.5;" x1="736" x2="1256" y1="406.6094" y2="406.6094"/><text fill="#000000" font-family="sans-serif" font-size="11" lengthAdjust="spacingAndGlyphs" textLength="178" x="741" y="420.8198">__init__(self, **kwargs) -&gt; None</text><text fill="#000000" font-family="sans-serif" font-size="11" lengthAdjust="spacingAndGlyphs" textLength="510" x="741" y="433.6245">func(self, client: zulip.Client, message: Dict[str, Any], **kwargs) -&gt; Tuple[str, Dict[str, Any]]</text><!--class lib.BaseCommand--><rect fill="#FEFECE" filter="url(#f9pvyadrueftj)" height="86.4141" id="lib.BaseCommand" style="stroke: #A80036; stroke-width: 1.5;" width="520" x="957" y="59"/><ellipse cx="1169.25" cy="75" fill="#A9DCDF" rx="11" ry="11" style="stroke: #A80036; stroke-width: 1.0;"/><path d="M1169.3594,70.3438 L1168.2031,75.4219 L1170.5313,75.4219 L1169.3594,70.3438 Z M1167.875,68.1094 L1170.8594,68.1094 L1174.2188,80.5 L1171.7656,80.5 L1171,77.4375 L1167.7188,77.4375 L1166.9688,80.5 L1164.5313,80.5 L1167.875,68.1094 Z "/><text fill="#000000" font-family="sans-serif" font-size="12" font-style="italic" lengthAdjust="spacingAndGlyphs" textLength="87" x="1189.75" y="79.1543">BaseCommand</text><line style="stroke: #A80036; stroke-width: 1.5;" x1="958" x2="1476" y1="91" y2="91"/><line style="stroke: #A80036; stroke-width: 1.5;" x1="958" x2="1476" y1="99" y2="99"/><text fill="#000000" font-family="sans-serif" font-size="11" font-style="italic" lengthAdjust="spacingAndGlyphs" textLength="176" x="963" y="113.2104">__init__(self, **kwargs) -&gt; None</text><text fill="#000000" font-family="sans-serif" font-size="11" font-style="italic" lengthAdjust="spacingAndGlyphs" textLength="508" x="963" y="126.0151">func(self, client: zulip.Client, message: Dict[str, Any], **kwargs) -&gt; Tuple[str, Dict[str, Any]]</text><text fill="#000000" font-family="sans-serif" font-size="11" lengthAdjust="spacingAndGlyphs" textLength="294" x="963" y="138.8198">is_responsible(self, message: Dict[str, Any]) -&gt; bool</text><!--class lib.Command--><rect fill="#FEFECE" filter="url(#f9pvyadrueftj)" height="60.8047" id="lib.Command" style="stroke: #A80036; stroke-width: 1.5;" width="197" x="736.5" y="205"/><ellipse cx="801.25" cy="221" fill="#A9DCDF" rx="11" ry="11" style="stroke: #A80036; stroke-width: 1.0;"/><path d="M801.3594,216.3438 L800.2031,221.4219 L802.5313,221.4219 L801.3594,216.3438 Z M799.875,214.1094 L802.8594,214.1094 L806.2188,226.5 L803.7656,226.5 L803,223.4375 L799.7188,223.4375 L798.9688,226.5 L796.5313,226.5 L799.875,214.1094 Z "/><text fill="#000000" font-family="sans-serif" font-size="12" font-style="italic" lengthAdjust="spacingAndGlyphs" textLength="59" x="821.75" y="225.1543">Command</text><line style="stroke: #A80036; stroke-width: 1.5;" x1="737.5" x2="932.5" y1="237" y2="237"/><line style="stroke: #A80036; stroke-width: 1.5;" x1="737.5" x2="932.5" y1="245" y2="245"/><text fill="#000000" font-family="sans-serif" font-size="11" lengthAdjust="spacingAndGlyphs" textLength="185" x="742.5" y="259.2104">get_usage(self) -&gt; Tuple[str, str]</text><!--class lib.Helper--><rect fill="#FEFECE" filter="url(#f9pvyadrueftj)" height="73.6094" id="lib.Helper" style="stroke: #A80036; stroke-width: 1.5;" width="345" x="576.5" y="65"/><ellipse cx="724.25" cy="81" fill="#ADD1B2" rx="11" ry="11" style="stroke: #A80036; stroke-width: 1.0;"/><path d="M727.2188,86.6406 Q726.6406,86.9375 726,87.0781 Q725.3594,87.2344 724.6563,87.2344 Q722.1563,87.2344 720.8281,85.5938 Q719.5156,83.9375 719.5156,80.8125 Q719.5156,77.6875 720.8281,76.0313 Q722.1563,74.375 724.6563,74.375 Q725.3594,74.375 726,74.5313 Q726.6563,74.6875 727.2188,74.9844 L727.2188,77.7031 Q726.5938,77.125 726,76.8594 Q725.4063,76.5781 724.7813,76.5781 Q723.4375,76.5781 722.75,77.6563 Q722.0625,78.7188 722.0625,80.8125 Q722.0625,82.9063 722.75,83.9844 Q723.4375,85.0469 724.7813,85.0469 Q725.4063,85.0469 726,84.7813 Q726.5938,84.5 727.2188,83.9219 L727.2188,86.6406 Z "/><text fill="#000000" font-family="sans-serif" font-size="12" lengthAdjust="spacingAndGlyphs" textLength="41" x="744.75" y="85.1543">Helper</text><line style="stroke: #A80036; stroke-width: 1.5;" x1="577.5" x2="920.5" y1="97" y2="97"/><line style="stroke: #A80036; stroke-width: 1.5;" x1="577.5" x2="920.5" y1="105" y2="105"/><text fill="#000000" font-family="sans-serif" font-size="11" lengthAdjust="spacingAndGlyphs" text-decoration="underline" textLength="163" x="582.5" y="119.2104">get_help(cls, user: str) -&gt; str</text><line style="stroke: #000000; stroke-width: 1.0;" x1="582.5" x2="745.5" y1="121.2104" y2="121.2104"/><text fill="#000000" font-family="sans-serif" font-size="11" lengthAdjust="spacingAndGlyphs" text-decoration="underline" textLength="333" x="582.5" y="132.0151">extend_command_docs(cls, docs: List[Tuple[str]]) -&gt; None:</text><line style="stroke: #000000; stroke-width: 1.0;" x1="582.5" x2="915.5" y1="134.0151" y2="134.0151"/><!--link tumcsbot.TumCSBot to lib.Command--><path d="M443.97,142.02 C539.07,164.51 655.44,192.03 736.39,211.18 " fill="none" id="tumcsbot.TumCSBot-lib.Command" style="stroke: #A80036; stroke-width: 1.0;"/><polygon fill="#A80036" points="431.3,139.02,436.2157,144.2959,442.9765,141.7876,438.0608,136.5116,431.3,139.02" style="stroke: #A80036; stroke-width: 1.0;"/><text fill="#000000" font-family="sans-serif" font-size="13" lengthAdjust="spacingAndGlyphs" textLength="7" x="721.5722" y="205.8232">*</text><!--link lib.BaseCommand to lib.Command--><path d="M1075.59,151.68 C1023.67,169.55 966.49,189.23 920.91,204.92 " fill="none" id="lib.BaseCommand-lib.Command" style="stroke: #A80036; stroke-width: 1.0;"/><polygon fill="none" points="1073.63,144.95,1094.82,145.06,1078.19,158.19,1073.63,144.95" style="stroke: #A80036; stroke-width: 1.0;"/><!--link lib.Command to commands.example1.Command--><path d="M735.15,273.14 C679.77,293.45 610.21,318.98 550.36,340.94 " fill="none" id="lib.Command-commands.example1.Command" style="stroke: #A80036; stroke-width: 1.0;"/><polygon fill="none" points="732.92,266.5,754.1,266.18,737.74,279.64,732.92,266.5" style="stroke: #A80036; stroke-width: 1.0;"/><!--link lib.Command to commands.example2.Command--><path d="M881.16,280.37 C901.02,299.24 924.3,321.37 944.7,340.75 " fill="none" id="lib.Command-commands.example2.Command" style="stroke: #A80036; stroke-width: 1.0;"/><polygon fill="none" points="876.1,285.21,866.42,266.36,885.74,275.07,876.1,285.21" style="stroke: #A80036; stroke-width: 1.0;"/><!--
@startuml

class tumcsbot.TumCSBot {
    __init__(self, zuliprc: str, debug: bool = False, logfile: str = None, **kwargs) -> None
start(self) -> None
}

class commands.example1.Command {
{static} syntax: str
{static} description: str
__init__(self, **kwargs) -> None
func(self, client: zulip.Client, message: Dict[str, Any], **kwargs) -> Tuple[str, Dict[str, Any]]
}

class commands.example2.Command {
{static} syntax: str
{static} description: str
__init__(self, **kwargs) -> None
func(self, client: zulip.Client, message: Dict[str, Any], **kwargs) -> Tuple[str, Dict[str, Any]]
}

abstract class lib.BaseCommand {
{abstract} __init__(self, **kwargs) -> None
{abstract} func(self, client: zulip.Client, message: Dict[str, Any], **kwargs) -> Tuple[str, Dict[str, Any]]
is_responsible(self, message: Dict[str, Any]) -> bool
}

abstract class lib.Command {
get_usage(self) -> Tuple[str, str]
}

class lib.Helper {
{static} get_help(cls, user: str) -> str
{static} extend_command_docs(cls, docs: List[Tuple[str]]) -> None:
}

tumcsbot.TumCSBot *- - "*" lib.Command
lib.BaseCommand <|- - lib.Command
lib.Command <|- -commands.example1.Command
lib.Command <|- - commands.example2.Command

@enduml

PlantUML version 1.2019.01(Sat Feb 09 16:32:04 CET 2019)
(LGPL source distribution)
Java Runtime: OpenJDK Runtime Environment
JVM: OpenJDK 64-Bit Server VM
Java Version: 15+36
Operating System: Linux
OS Version: 5.8.12-200.fc32.x86_64
Default Encoding: UTF-8
Language: en
Country: US
--></g></svg>