<?xml version="1.0" encoding="UTF-8" standalone="no"?><svg xmlns="http://www.w3.org/2000/svg" xmlns:xlink="http://www.w3.org/1999/xlink" contentScriptType="application/ecmascript" contentStyleType="text/css" height="1096px" preserveAspectRatio="none" style="width:1693px;height:1096px;" version="1.1" viewBox="0 0 1693 1096" width="1693px" zoomAndPan="magnify"><defs><filter height="300%" id="f1rsdpyebikrc5" width="300%" x="-1" y="-1"><feGaussianBlur result="blurOut" stdDeviation="2.0"/><feColorMatrix in="blurOut" result="blurOut2" type="matrix" values="0 0 0 0 0 0 0 0 0 0 0 0 0 0 0 0 0 0 .4 0"/><feOffset dx="4.0" dy="4.0" in="blurOut2" result="blurOut3"/><feBlend in="SourceGraphic" in2="blurOut3" mode="normal"/></filter></defs><g><!--cluster tumcsbot--><polygon fill="#FFFFFF" filter="url(#f1rsdpyebikrc5)" points="22,43,102,43,109,65.2969,524,65.2969,524,168,22,168,22,43" style="stroke: #000000; stroke-width: 1.5;"/><line style="stroke: #000000; stroke-width: 1.5;" x1="22" x2="109" y1="65.2969" y2="65.2969"/><text fill="#000000" font-family="sans-serif" font-size="14" font-weight="bold" lengthAdjust="spacingAndGlyphs" textLength="74" x="26" y="57.9951">tumcsbot</text><!--cluster commands.example1--><polygon fill="#FFFFFF" filter="url(#f1rsdpyebikrc5)" points="917,452,1089,452,1096,474.2969,1354,474.2969,1354,593,917,593,917,452" style="stroke: #000000; stroke-width: 1.5;"/><line style="stroke: #000000; stroke-width: 1.5;" x1="917" x2="1096" y1="474.2969" y2="474.2969"/><text fill="#000000" font-family="sans-serif" font-size="14" font-weight="bold" lengthAdjust="spacingAndGlyphs" textLength="166" x="921" y="466.9951">commands.example1</text><!--cluster command--><polygon fill="#FFFFFF" filter="url(#f1rsdpyebikrc5)" points="548,24,630,24,637,46.2969,1072,46.2969,1072,411,548,411,548,24" style="stroke: #000000; stroke-width: 1.5;"/><line style="stroke: #000000; stroke-width: 1.5;" x1="548" x2="637" y1="46.2969" y2="46.2969"/><text fill="#000000" font-family="sans-serif" font-size="14" font-weight="bold" lengthAdjust="spacingAndGlyphs" textLength="76" x="552" y="38.9951">command</text><!--cluster commands.example2--><polygon fill="#FFFFFF" filter="url(#f1rsdpyebikrc5)" points="318,452,490,452,497,474.2969,877,474.2969,877,593,318,593,318,452" style="stroke: #000000; stroke-width: 1.5;"/><line style="stroke: #000000; stroke-width: 1.5;" x1="318" x2="497" y1="474.2969" y2="474.2969"/><text fill="#000000" font-family="sans-serif" font-size="14" font-weight="bold" lengthAdjust="spacingAndGlyphs" textLength="166" x="322" y="466.9951">commands.example2</text><!--cluster lib--><polygon fill="#FFFFFF" filter="url(#f1rsdpyebikrc5)" points="318,642,342,642,349,664.2969,1671,664.2969,1671,1084,318,1084,318,642" style="stroke: #000000; stroke-width: 1.5;"/><line style="stroke: #000000; stroke-width: 1.5;" x1="318" x2="349" y1="664.2969" y2="664.2969"/><text fill="#000000" font-family="sans-serif" font-size="14" font-weight="bold" lengthAdjust="spacingAndGlyphs" textLength="18" x="322" y="656.9951">lib</text><!--class tumcsbot.TumCSBot--><rect fill="#FEFECE" filter="url(#f1rsdpyebikrc5)" height="73.6094" id="tumcsbot.TumCSBot" style="stroke: #A80036; stroke-width: 1.5;" width="470" x="38" y="78"/><ellipse cx="237.25" cy="94" fill="#ADD1B2" rx="11" ry="11" style="stroke: #A80036; stroke-width: 1.0;"/><path d="M240.2188,99.6406 Q239.6406,99.9375 239,100.0781 Q238.3594,100.2344 237.6563,100.2344 Q235.1563,100.2344 233.8281,98.5938 Q232.5156,96.9375 232.5156,93.8125 Q232.5156,90.6875 233.8281,89.0313 Q235.1563,87.375 237.6563,87.375 Q238.3594,87.375 239,87.5313 Q239.6563,87.6875 240.2188,87.9844 L240.2188,90.7031 Q239.5938,90.125 239,89.8594 Q238.4063,89.5781 237.7813,89.5781 Q236.4375,89.5781 235.75,90.6563 Q235.0625,91.7188 235.0625,93.8125 Q235.0625,95.9063 235.75,96.9844 Q236.4375,98.0469 237.7813,98.0469 Q238.4063,98.0469 239,97.7813 Q239.5938,97.5 240.2188,96.9219 L240.2188,99.6406 Z "/><text fill="#000000" font-family="sans-serif" font-size="12" lengthAdjust="spacingAndGlyphs" textLength="63" x="257.75" y="98.1543">TumCSBot</text><line style="stroke: #A80036; stroke-width: 1.5;" x1="39" x2="507" y1="110" y2="110"/><text fill="#000000" font-family="sans-serif" font-size="11" lengthAdjust="spacingAndGlyphs" textLength="69" x="44" y="124.2104">client: Client</text><line style="stroke: #A80036; stroke-width: 1.5;" x1="39" x2="507" y1="130.8047" y2="130.8047"/><text fill="#000000" font-family="sans-serif" font-size="11" lengthAdjust="spacingAndGlyphs" textLength="458" x="44" y="145.0151">__init__(zuliprc: str, db_path: str, debug: bool, logfile: Optional[str], **kwargs: str)</text><!--class commands.example1.Command--><rect fill="#FEFECE" filter="url(#f1rsdpyebikrc5)" height="73.6094" id="commands.example1.Command" style="stroke: #A80036; stroke-width: 1.5;" width="370" x="960" y="495"/><ellipse cx="1109.75" cy="511" fill="#ADD1B2" rx="11" ry="11" style="stroke: #A80036; stroke-width: 1.0;"/><path d="M1112.7188,516.6406 Q1112.1406,516.9375 1111.5,517.0781 Q1110.8594,517.2344 1110.1563,517.2344 Q1107.6563,517.2344 1106.3281,515.5938 Q1105.0156,513.9375 1105.0156,510.8125 Q1105.0156,507.6875 1106.3281,506.0313 Q1107.6563,504.375 1110.1563,504.375 Q1110.8594,504.375 1111.5,504.5313 Q1112.1563,504.6875 1112.7188,504.9844 L1112.7188,507.7031 Q1112.0938,507.125 1111.5,506.8594 Q1110.9063,506.5781 1110.2813,506.5781 Q1108.9375,506.5781 1108.25,507.6563 Q1107.5625,508.7188 1107.5625,510.8125 Q1107.5625,512.9063 1108.25,513.9844 Q1108.9375,515.0469 1110.2813,515.0469 Q1110.9063,515.0469 1111.5,514.7813 Q1112.0938,514.5 1112.7188,513.9219 L1112.7188,516.6406 Z "/><text fill="#000000" font-family="sans-serif" font-size="12" lengthAdjust="spacingAndGlyphs" textLength="62" x="1130.25" y="515.1543">Command</text><line style="stroke: #A80036; stroke-width: 1.5;" x1="961" x2="1329" y1="527" y2="527"/><line style="stroke: #A80036; stroke-width: 1.5;" x1="961" x2="1329" y1="535" y2="535"/><text fill="#000000" font-family="sans-serif" font-size="11" lengthAdjust="spacingAndGlyphs" textLength="102" x="966" y="549.2104">__init__(**kwargs)</text><text fill="#000000" font-family="sans-serif" font-size="11" lengthAdjust="spacingAndGlyphs" textLength="358" x="966" y="562.0151">func(client: Client, event: Dict[str, Any], **kwargs): lib.Response</text><!--class command.Command--><rect fill="#FEFECE" filter="url(#f1rsdpyebikrc5)" height="112.0234" id="command.Command" style="stroke: #A80036; stroke-width: 1.5;" width="370" x="625" y="59"/><ellipse cx="776.25" cy="75" fill="#A9DCDF" rx="11" ry="11" style="stroke: #A80036; stroke-width: 1.0;"/><path d="M776.3594,70.3438 L775.2031,75.4219 L777.5313,75.4219 L776.3594,70.3438 Z M774.875,68.1094 L777.8594,68.1094 L781.2188,80.5 L778.7656,80.5 L778,77.4375 L774.7188,77.4375 L773.9688,80.5 L771.5313,80.5 L774.875,68.1094 Z "/><text fill="#000000" font-family="sans-serif" font-size="12" font-style="italic" lengthAdjust="spacingAndGlyphs" textLength="59" x="796.75" y="79.1543">Command</text><line style="stroke: #A80036; stroke-width: 1.5;" x1="626" x2="994" y1="91" y2="91"/><text fill="#000000" font-family="sans-serif" font-size="11" lengthAdjust="spacingAndGlyphs" text-decoration="underline" textLength="55" x="631" y="105.2104">name: str</text><line style="stroke: #000000; stroke-width: 1.0;" x1="631" x2="686" y1="107.2104" y2="107.2104"/><text fill="#000000" font-family="sans-serif" font-size="11" lengthAdjust="spacingAndGlyphs" text-decoration="underline" textLength="89" x="631" y="118.0151">events: List[str]</text><line style="stroke: #000000; stroke-width: 1.0;" x1="631" x2="720" y1="120.0151" y2="120.0151"/><line style="stroke: #A80036; stroke-width: 1.5;" x1="626" x2="994" y1="124.6094" y2="124.6094"/><text fill="#000000" font-family="sans-serif" font-size="11" font-style="italic" lengthAdjust="spacingAndGlyphs" textLength="101" x="631" y="138.8198">__init__(**kwargs)</text><text fill="#000000" font-family="sans-serif" font-size="11" font-style="italic" lengthAdjust="spacingAndGlyphs" textLength="358" x="631" y="151.6245">func(client: Client, event: Dict[str, Any], **kwargs): lib.Response</text><text fill="#000000" font-family="sans-serif" font-size="11" lengthAdjust="spacingAndGlyphs" textLength="232" x="631" y="164.4292">is_responsible(event: Dict[str, Any]): bool</text><!--class command.CommandInteractive--><rect fill="#FEFECE" filter="url(#f1rsdpyebikrc5)" height="163.2422" id="command.CommandInteractive" style="stroke: #A80036; stroke-width: 1.5;" width="492" x="564" y="232"/><ellipse cx="744.75" cy="248" fill="#A9DCDF" rx="11" ry="11" style="stroke: #A80036; stroke-width: 1.0;"/><path d="M744.8594,243.3438 L743.7031,248.4219 L746.0313,248.4219 L744.8594,243.3438 Z M743.375,241.1094 L746.3594,241.1094 L749.7188,253.5 L747.2656,253.5 L746.5,250.4375 L743.2188,250.4375 L742.4688,253.5 L740.0313,253.5 L743.375,241.1094 Z "/><text fill="#000000" font-family="sans-serif" font-size="12" font-style="italic" lengthAdjust="spacingAndGlyphs" textLength="122" x="765.25" y="252.1543">CommandInteractive</text><line style="stroke: #A80036; stroke-width: 1.5;" x1="565" x2="1055" y1="264" y2="264"/><text fill="#000000" font-family="sans-serif" font-size="11" lengthAdjust="spacingAndGlyphs" text-decoration="underline" textLength="55" x="570" y="278.2104">name: str</text><line style="stroke: #000000; stroke-width: 1.0;" x1="570" x2="625" y1="280.2104" y2="280.2104"/><text fill="#000000" font-family="sans-serif" font-size="11" lengthAdjust="spacingAndGlyphs" text-decoration="underline" textLength="60" x="570" y="291.0151">syntax: str</text><line style="stroke: #000000; stroke-width: 1.0;" x1="570" x2="630" y1="293.0151" y2="293.0151"/><text fill="#000000" font-family="sans-serif" font-size="11" lengthAdjust="spacingAndGlyphs" text-decoration="underline" textLength="86" x="570" y="303.8198">description: str</text><line style="stroke: #000000; stroke-width: 1.0;" x1="570" x2="656" y1="305.8198" y2="305.8198"/><text fill="#000000" font-family="sans-serif" font-size="11" lengthAdjust="spacingAndGlyphs" text-decoration="underline" textLength="171" x="570" y="316.6245">events: List[str] = ['message']</text><line style="stroke: #000000; stroke-width: 1.0;" x1="570" x2="741" y1="318.6245" y2="318.6245"/><line style="stroke: #A80036; stroke-width: 1.5;" x1="565" x2="1055" y1="323.2188" y2="323.2188"/><text fill="#000000" font-family="sans-serif" font-size="11" font-style="italic" lengthAdjust="spacingAndGlyphs" textLength="101" x="570" y="337.4292">__init__(**kwargs)</text><text fill="#000000" font-family="sans-serif" font-size="11" font-style="italic" lengthAdjust="spacingAndGlyphs" textLength="480" x="570" y="350.2339">handle_message(client: Client,  message: Dict[str, Any], **kwargs: Any): lib.Response</text><text fill="#000000" font-family="sans-serif" font-size="11" lengthAdjust="spacingAndGlyphs" textLength="358" x="570" y="363.0386">func(client: Client, event: Dict[str, Any], **kwargs): lib.Response</text><text fill="#000000" font-family="sans-serif" font-size="11" lengthAdjust="spacingAndGlyphs" textLength="152" x="570" y="375.8433">get_usage(): Tuple[str, str]</text><text fill="#000000" font-family="sans-serif" font-size="11" lengthAdjust="spacingAndGlyphs" textLength="232" x="570" y="388.6479">is_responsible(event: Dict[str, Any]): bool</text><!--class commands.example2.Command--><rect fill="#FEFECE" filter="url(#f1rsdpyebikrc5)" height="73.6094" id="commands.example2.Command" style="stroke: #A80036; stroke-width: 1.5;" width="492" x="361" y="495"/><ellipse cx="571.75" cy="511" fill="#ADD1B2" rx="11" ry="11" style="stroke: #A80036; stroke-width: 1.0;"/><path d="M574.7188,516.6406 Q574.1406,516.9375 573.5,517.0781 Q572.8594,517.2344 572.1563,517.2344 Q569.6563,517.2344 568.3281,515.5938 Q567.0156,513.9375 567.0156,510.8125 Q567.0156,507.6875 568.3281,506.0313 Q569.6563,504.375 572.1563,504.375 Q572.8594,504.375 573.5,504.5313 Q574.1563,504.6875 574.7188,504.9844 L574.7188,507.7031 Q574.0938,507.125 573.5,506.8594 Q572.9063,506.5781 572.2813,506.5781 Q570.9375,506.5781 570.25,507.6563 Q569.5625,508.7188 569.5625,510.8125 Q569.5625,512.9063 570.25,513.9844 Q570.9375,515.0469 572.2813,515.0469 Q572.9063,515.0469 573.5,514.7813 Q574.0938,514.5 574.7188,513.9219 L574.7188,516.6406 Z "/><text fill="#000000" font-family="sans-serif" font-size="12" lengthAdjust="spacingAndGlyphs" textLength="62" x="592.25" y="515.1543">Command</text><line style="stroke: #A80036; stroke-width: 1.5;" x1="362" x2="852" y1="527" y2="527"/><line style="stroke: #A80036; stroke-width: 1.5;" x1="362" x2="852" y1="535" y2="535"/><text fill="#000000" font-family="sans-serif" font-size="11" lengthAdjust="spacingAndGlyphs" textLength="102" x="367" y="549.2104">__init__(**kwargs)</text><text fill="#000000" font-family="sans-serif" font-size="11" lengthAdjust="spacingAndGlyphs" textLength="480" x="367" y="562.0151">handle_message(client: Client, message: Dict[str, Any], **kwargs: Any): lib.Response</text><!--class lib.StrEnum--><rect fill="#FEFECE" filter="url(#f1rsdpyebikrc5)" height="48" id="lib.StrEnum" style="stroke: #A80036; stroke-width: 1.5;" width="85" x="429.5" y="717"/><ellipse cx="444.5" cy="733" fill="#EB937F" rx="11" ry="11" style="stroke: #A80036; stroke-width: 1.0;"/><path d="M448.6094,739 L440.8906,739 L440.8906,726.6094 L448.6094,726.6094 L448.6094,728.7656 L443.3438,728.7656 L443.3438,731.4375 L448.1094,731.4375 L448.1094,733.5938 L443.3438,733.5938 L443.3438,736.8438 L448.6094,736.8438 L448.6094,739 Z "/><text fill="#000000" font-family="sans-serif" font-size="12" lengthAdjust="spacingAndGlyphs" textLength="53" x="458.5" y="737.1543">StrEnum</text><line style="stroke: #A80036; stroke-width: 1.5;" x1="430.5" x2="513.5" y1="749" y2="749"/><line style="stroke: #A80036; stroke-width: 1.5;" x1="430.5" x2="513.5" y1="757" y2="757"/><!--class lib.DB--><rect fill="#FEFECE" filter="url(#f1rsdpyebikrc5)" height="112.0234" id="lib.DB" style="stroke: #A80036; stroke-width: 1.5;" width="405" x="936.5" y="685"/><ellipse cx="1126.25" cy="701" fill="#ADD1B2" rx="11" ry="11" style="stroke: #A80036; stroke-width: 1.0;"/><path d="M1129.2188,706.6406 Q1128.6406,706.9375 1128,707.0781 Q1127.3594,707.2344 1126.6563,707.2344 Q1124.1563,707.2344 1122.8281,705.5938 Q1121.5156,703.9375 1121.5156,700.8125 Q1121.5156,697.6875 1122.8281,696.0313 Q1124.1563,694.375 1126.6563,694.375 Q1127.3594,694.375 1128,694.5313 Q1128.6563,694.6875 1129.2188,694.9844 L1129.2188,697.7031 Q1128.5938,697.125 1128,696.8594 Q1127.4063,696.5781 1126.7813,696.5781 Q1125.4375,696.5781 1124.75,697.6563 Q1124.0625,698.7188 1124.0625,700.8125 Q1124.0625,702.9063 1124.75,703.9844 Q1125.4375,705.0469 1126.7813,705.0469 Q1127.4063,705.0469 1128,704.7813 Q1128.5938,704.5 1129.2188,703.9219 L1129.2188,706.6406 Z "/><text fill="#000000" font-family="sans-serif" font-size="12" lengthAdjust="spacingAndGlyphs" textLength="17" x="1146.75" y="705.1543">DB</text><line style="stroke: #A80036; stroke-width: 1.5;" x1="937.5" x2="1340.5" y1="717" y2="717"/><text fill="#000000" font-family="sans-serif" font-size="11" lengthAdjust="spacingAndGlyphs" text-decoration="underline" textLength="103" x="942.5" y="731.2104">path: Optional[str]</text><line style="stroke: #000000; stroke-width: 1.0;" x1="942.5" x2="1045.5" y1="733.2104" y2="733.2104"/><line style="stroke: #A80036; stroke-width: 1.5;" x1="937.5" x2="1340.5" y1="737.8047" y2="737.8047"/><text fill="#000000" font-family="sans-serif" font-size="11" lengthAdjust="spacingAndGlyphs" textLength="49" x="942.5" y="752.0151">__init__()</text><text fill="#000000" font-family="sans-serif" font-size="11" lengthAdjust="spacingAndGlyphs" textLength="218" x="942.5" y="764.8198">checkout_table(table: str, schema: str)</text><text fill="#000000" font-family="sans-serif" font-size="11" lengthAdjust="spacingAndGlyphs" textLength="393" x="942.5" y="777.6245">checkout_row(table: str, key_column: str, key: str, default_values: str)</text><text fill="#000000" font-family="sans-serif" font-size="11" lengthAdjust="spacingAndGlyphs" textLength="324" x="942.5" y="790.4292">execute(command: str, commit: bool): List[Tuple[Any, ...]]</text><!--class lib.Helper--><rect fill="#FEFECE" filter="url(#f1rsdpyebikrc5)" height="73.6094" id="lib.Helper" style="stroke: #A80036; stroke-width: 1.5;" width="270" x="1377" y="704"/><ellipse cx="1487.25" cy="720" fill="#ADD1B2" rx="11" ry="11" style="stroke: #A80036; stroke-width: 1.0;"/><path d="M1490.2188,725.6406 Q1489.6406,725.9375 1489,726.0781 Q1488.3594,726.2344 1487.6563,726.2344 Q1485.1563,726.2344 1483.8281,724.5938 Q1482.5156,722.9375 1482.5156,719.8125 Q1482.5156,716.6875 1483.8281,715.0313 Q1485.1563,713.375 1487.6563,713.375 Q1488.3594,713.375 1489,713.5313 Q1489.6563,713.6875 1490.2188,713.9844 L1490.2188,716.7031 Q1489.5938,716.125 1489,715.8594 Q1488.4063,715.5781 1487.7813,715.5781 Q1486.4375,715.5781 1485.75,716.6563 Q1485.0625,717.7188 1485.0625,719.8125 Q1485.0625,721.9063 1485.75,722.9844 Q1486.4375,724.0469 1487.7813,724.0469 Q1488.4063,724.0469 1489,723.7813 Q1489.5938,723.5 1490.2188,722.9219 L1490.2188,725.6406 Z "/><text fill="#000000" font-family="sans-serif" font-size="12" lengthAdjust="spacingAndGlyphs" textLength="41" x="1507.75" y="724.1543">Helper</text><line style="stroke: #A80036; stroke-width: 1.5;" x1="1378" x2="1646" y1="736" y2="736"/><line style="stroke: #A80036; stroke-width: 1.5;" x1="1378" x2="1646" y1="744" y2="744"/><text fill="#000000" font-family="sans-serif" font-size="11" lengthAdjust="spacingAndGlyphs" text-decoration="underline" textLength="128" x="1383" y="758.2104">get_help(user: str): str</text><line style="stroke: #000000; stroke-width: 1.0;" x1="1383" x2="1511" y1="760.2104" y2="760.2104"/><text fill="#000000" font-family="sans-serif" font-size="11" lengthAdjust="spacingAndGlyphs" text-decoration="underline" textLength="258" x="1383" y="771.0151">extend_command_docs(docs: List[Tuple[str]])</text><line style="stroke: #000000; stroke-width: 1.0;" x1="1383" x2="1641" y1="773.0151" y2="773.0151"/><!--class lib.Response--><rect fill="#FEFECE" filter="url(#f1rsdpyebikrc5)" height="201.6563" id="lib.Response" style="stroke: #A80036; stroke-width: 1.5;" width="983" x="663.5" y="858"/><ellipse cx="1119.75" cy="874" fill="#ADD1B2" rx="11" ry="11" style="stroke: #A80036; stroke-width: 1.0;"/><path d="M1122.7188,879.6406 Q1122.1406,879.9375 1121.5,880.0781 Q1120.8594,880.2344 1120.1563,880.2344 Q1117.6563,880.2344 1116.3281,878.5938 Q1115.0156,876.9375 1115.0156,873.8125 Q1115.0156,870.6875 1116.3281,869.0313 Q1117.6563,867.375 1120.1563,867.375 Q1120.8594,867.375 1121.5,867.5313 Q1122.1563,867.6875 1122.7188,867.9844 L1122.7188,870.7031 Q1122.0938,870.125 1121.5,869.8594 Q1120.9063,869.5781 1120.2813,869.5781 Q1118.9375,869.5781 1118.25,870.6563 Q1117.5625,871.7188 1117.5625,873.8125 Q1117.5625,875.9063 1118.25,876.9844 Q1118.9375,878.0469 1120.2813,878.0469 Q1120.9063,878.0469 1121.5,877.7813 Q1122.0938,877.5 1122.7188,876.9219 L1122.7188,879.6406 Z "/><text fill="#000000" font-family="sans-serif" font-size="12" lengthAdjust="spacingAndGlyphs" textLength="62" x="1140.25" y="878.1543">Response</text><line style="stroke: #A80036; stroke-width: 1.5;" x1="664.5" x2="1645.5" y1="890" y2="890"/><line style="stroke: #A80036; stroke-width: 1.5;" x1="664.5" x2="1645.5" y1="898" y2="898"/><text fill="#000000" font-family="sans-serif" font-size="11" lengthAdjust="spacingAndGlyphs" textLength="357" x="669.5" y="912.2104">__init__(message_type: MessageType, response: Dict[str, Any])</text><text fill="#000000" font-family="sans-serif" font-size="11" lengthAdjust="spacingAndGlyphs" textLength="83" x="669.5" y="925.0151">is_none(): bool</text><text fill="#000000" font-family="sans-serif" font-size="11" lengthAdjust="spacingAndGlyphs" text-decoration="underline" textLength="971" x="669.5" y="937.8198">build_message(message: Optional[Dict[str, Any]], content: str, msg_type: Optional[str] = None, to: Optional[Union[str, int]] = None, subject: Optional[str] = None): Response</text><line style="stroke: #000000; stroke-width: 1.0;" x1="669.5" x2="1640.5" y1="939.8198" y2="939.8198"/><text fill="#000000" font-family="sans-serif" font-size="11" lengthAdjust="spacingAndGlyphs" text-decoration="underline" textLength="343" x="669.5" y="950.6245">build_reaction(message: Dict[str, Any], emoji: str): Response</text><line style="stroke: #000000; stroke-width: 1.0;" x1="669.5" x2="1012.5" y1="952.6245" y2="952.6245"/><text fill="#000000" font-family="sans-serif" font-size="11" lengthAdjust="spacingAndGlyphs" text-decoration="underline" textLength="261" x="669.5" y="963.4292">admin_err(message: Dict[str, Any]): Response</text><line style="stroke: #000000; stroke-width: 1.0;" x1="669.5" x2="930.5" y1="965.4292" y2="965.4292"/><text fill="#000000" font-family="sans-serif" font-size="11" lengthAdjust="spacingAndGlyphs" text-decoration="underline" textLength="321" x="669.5" y="976.2339">command_not_found(message: Dict[str, Any]): Response</text><line style="stroke: #000000; stroke-width: 1.0;" x1="669.5" x2="990.5" y1="978.2339" y2="978.2339"/><text fill="#000000" font-family="sans-serif" font-size="11" lengthAdjust="spacingAndGlyphs" text-decoration="underline" textLength="232" x="669.5" y="989.0386">error(message: Dict[str, Any]): Response</text><line style="stroke: #000000; stroke-width: 1.0;" x1="669.5" x2="901.5" y1="991.0386" y2="991.0386"/><text fill="#000000" font-family="sans-serif" font-size="11" lengthAdjust="spacingAndGlyphs" text-decoration="underline" textLength="257" x="669.5" y="1001.8433">exception(message: Dict[str, Any]): Response</text><line style="stroke: #000000; stroke-width: 1.0;" x1="669.5" x2="926.5" y1="1003.8433" y2="1003.8433"/><text fill="#000000" font-family="sans-serif" font-size="11" lengthAdjust="spacingAndGlyphs" text-decoration="underline" textLength="233" x="669.5" y="1014.6479">greet(message: Dict[str, Any]): Response</text><line style="stroke: #000000; stroke-width: 1.0;" x1="669.5" x2="902.5" y1="1016.6479" y2="1016.6479"/><text fill="#000000" font-family="sans-serif" font-size="11" lengthAdjust="spacingAndGlyphs" text-decoration="underline" textLength="216" x="669.5" y="1027.4526">ok(message: Dict[str, Any]): Response</text><line style="stroke: #000000; stroke-width: 1.0;" x1="669.5" x2="885.5" y1="1029.4526" y2="1029.4526"/><text fill="#000000" font-family="sans-serif" font-size="11" lengthAdjust="spacingAndGlyphs" text-decoration="underline" textLength="217" x="669.5" y="1040.2573">no(message: Dict[str, Any]): Response</text><line style="stroke: #000000; stroke-width: 1.0;" x1="669.5" x2="886.5" y1="1042.2573" y2="1042.2573"/><text fill="#000000" font-family="sans-serif" font-size="11" lengthAdjust="spacingAndGlyphs" text-decoration="underline" textLength="99" x="669.5" y="1053.062">none(): Response</text><line style="stroke: #000000; stroke-width: 1.0;" x1="669.5" x2="768.5" y1="1055.062" y2="1055.062"/><!--class lib.Regex--><rect fill="#FEFECE" filter="url(#f1rsdpyebikrc5)" height="73.6094" id="lib.Regex" style="stroke: #A80036; stroke-width: 1.5;" width="126" x="350" y="922"/><ellipse cx="390.2" cy="938" fill="#EB937F" rx="11" ry="11" style="stroke: #A80036; stroke-width: 1.0;"/><path d="M394.3094,944 L386.5906,944 L386.5906,931.6094 L394.3094,931.6094 L394.3094,933.7656 L389.0438,933.7656 L389.0438,936.4375 L393.8094,936.4375 L393.8094,938.5938 L389.0438,938.5938 L389.0438,941.8438 L394.3094,941.8438 L394.3094,944 Z "/><text fill="#000000" font-family="sans-serif" font-size="12" lengthAdjust="spacingAndGlyphs" textLength="38" x="409.8" y="942.1543">Regex</text><line style="stroke: #A80036; stroke-width: 1.5;" x1="351" x2="475" y1="954" y2="954"/><text fill="#000000" font-family="sans-serif" font-size="11" lengthAdjust="spacingAndGlyphs" text-decoration="underline" textLength="114" x="356" y="968.2104">OPT_ASTERISKS: str</text><line style="stroke: #000000; stroke-width: 1.0;" x1="356" x2="470" y1="970.2104" y2="970.2104"/><text fill="#000000" font-family="sans-serif" font-size="11" lengthAdjust="spacingAndGlyphs" text-decoration="underline" textLength="68" x="356" y="981.0151">STREAM: str</text><line style="stroke: #000000; stroke-width: 1.0;" x1="356" x2="424" y1="983.0151" y2="983.0151"/><line style="stroke: #A80036; stroke-width: 1.5;" x1="351" x2="475" y1="987.6094" y2="987.6094"/><!--class lib.MessageType--><rect fill="#FEFECE" filter="url(#f1rsdpyebikrc5)" height="86.4141" id="lib.MessageType" style="stroke: #A80036; stroke-width: 1.5;" width="117" x="511.5" y="916"/><ellipse cx="526.5" cy="932" fill="#EB937F" rx="11" ry="11" style="stroke: #A80036; stroke-width: 1.0;"/><path d="M530.6094,938 L522.8906,938 L522.8906,925.6094 L530.6094,925.6094 L530.6094,927.7656 L525.3438,927.7656 L525.3438,930.4375 L530.1094,930.4375 L530.1094,932.5938 L525.3438,932.5938 L525.3438,935.8438 L530.6094,935.8438 L530.6094,938 Z "/><text fill="#000000" font-family="sans-serif" font-size="12" lengthAdjust="spacingAndGlyphs" textLength="85" x="540.5" y="936.1543">MessageType</text><line style="stroke: #A80036; stroke-width: 1.5;" x1="512.5" x2="627.5" y1="948" y2="948"/><text fill="#000000" font-family="sans-serif" font-size="11" lengthAdjust="spacingAndGlyphs" text-decoration="underline" textLength="78" x="517.5" y="962.2104">MESSAGE: str</text><line style="stroke: #000000; stroke-width: 1.0;" x1="517.5" x2="595.5" y1="964.2104" y2="964.2104"/><text fill="#000000" font-family="sans-serif" font-size="11" lengthAdjust="spacingAndGlyphs" text-decoration="underline" textLength="54" x="517.5" y="975.0151">EMOJI: str</text><line style="stroke: #000000; stroke-width: 1.0;" x1="517.5" x2="571.5" y1="977.0151" y2="977.0151"/><text fill="#000000" font-family="sans-serif" font-size="11" lengthAdjust="spacingAndGlyphs" text-decoration="underline" textLength="55" x="517.5" y="987.8198">NONE: str</text><line style="stroke: #000000; stroke-width: 1.0;" x1="517.5" x2="572.5" y1="989.8198" y2="989.8198"/><line style="stroke: #A80036; stroke-width: 1.5;" x1="512.5" x2="627.5" y1="994.4141" y2="994.4141"/><!--link command.Command to commands.example1.Command--><path d="M1012.62,180.66 C1035.7,194.67 1056.99,211.6 1074,232 C1138.06,308.84 1146.37,433.52 1146.23,494.74 " fill="none" id="command.Command-commands.example1.Command" style="stroke: #A80036; stroke-width: 1.0;"/><polygon fill="none" points="1009.05,186.68,995.1,170.73,1015.96,174.5,1009.05,186.68" style="stroke: #A80036; stroke-width: 1.0;"/><!--link command.CommandInteractive to commands.example2.Command--><path d="M720.68,409.76 C692.41,439.91 662.86,471.42 640.98,494.76 " fill="none" id="command.CommandInteractive-commands.example2.Command" style="stroke: #A80036; stroke-width: 1.0;"/><polygon fill="none" points="715.62,404.92,734.41,395.12,725.84,414.49,715.62,404.92" style="stroke: #A80036; stroke-width: 1.0;"/><!--link command.Command to command.CommandInteractive--><path d="M810,191.47 C810,204.74 810,218.59 810,231.99 " fill="none" id="command.Command-command.CommandInteractive" style="stroke: #A80036; stroke-width: 1.0;"/><polygon fill="none" points="803,191.26,810,171.26,817,191.26,803,191.26" style="stroke: #A80036; stroke-width: 1.0;"/><!--link lib.StrEnum to lib.Regex--><path d="M460.36,784.61 C449.42,824.68 433.22,883.99 422.89,921.81 " fill="none" id="lib.StrEnum-lib.Regex" style="stroke: #A80036; stroke-width: 1.0;"/><polygon fill="none" points="453.66,782.56,465.69,765.12,467.17,786.25,453.66,782.56" style="stroke: #A80036; stroke-width: 1.0;"/><!--link lib.StrEnum to lib.MessageType--><path d="M490.79,783.42 C508.05,821.45 533.5,877.55 550.86,915.82 " fill="none" id="lib.StrEnum-lib.MessageType" style="stroke: #A80036; stroke-width: 1.0;"/><polygon fill="none" points="484.38,786.22,482.49,765.12,497.13,780.44,484.38,786.22" style="stroke: #A80036; stroke-width: 1.0;"/><!--link tumcsbot.TumCSBot to command.Command--><path d="M521.45,115 C556.24,115 591.48,115 624.82,115 " fill="none" id="tumcsbot.TumCSBot-command.Command" style="stroke: #A80036; stroke-width: 1.0;"/><polygon fill="#FFFFFF" points="508.15,115,514.15,119,520.15,115,514.15,111,508.15,115" style="stroke: #A80036; stroke-width: 1.0;"/><text fill="#000000" font-family="sans-serif" font-size="13" lengthAdjust="spacingAndGlyphs" textLength="72" x="530.5" y="108.0669">commands</text><text fill="#000000" font-family="sans-serif" font-size="13" lengthAdjust="spacingAndGlyphs" textLength="7" x="609.8601" y="111.7528">*</text><!--link tumcsbot.TumCSBot to lib--><path d="M275.14,152.23 C280.08,233.87 293.19,438.38 310,609 C311.415,623.365 313.1025,638.5931 314.8427,653.3897 C315.7127,660.788 316.596,668.0784 317.4649,675.099 C317.5735,675.9766 317.6819,676.85 317.79,677.7188 C317.8441,678.1532 317.8981,678.5865 317.952,679.0186 " fill="none" id="tumcsbot.TumCSBot-lib" style="stroke: #A80036; stroke-width: 1.0;"/><polygon fill="#A80036" points="317.952,679.0186,320.807,669.5927,317.333,674.0571,312.8685,670.5831,317.952,679.0186" style="stroke: #A80036; stroke-width: 1.0;"/><!--link commands.example1 to lib--><path d="M916.8849,552.284 C916.6696,552.7292 916.45,553.1791 916.2262,553.6336 C914.4353,557.2692 912.3713,561.1925 910.035,565.2375 C900.69,581.4175 886.99,599.545 869,609 C842.68,622.83 355.43,605.38 334,626 C315.99,643.335 313.77,671.2225 316.16,695.075 C316.4588,698.0566 316.8295,700.9751 317.2505,703.8021 C317.461,705.2155 317.684,706.6061 317.9169,707.9703 " fill="none" id="commands.example1-lib" style="stroke: #A80036; stroke-width: 1.0;"/><polygon fill="#A80036" points="317.9169,707.9703,320.3455,698.4256,317.0756,703.0416,312.4596,699.7717,317.9169,707.9703" style="stroke: #A80036; stroke-width: 1.0;"/><!--link commands.example2 to lib--><path d="M326,593.1058 C326,593.8246 326,594.5468 326,595.2722 C326,596.7231 326,598.1868 326,599.6621 C326,611.4642 326,624.0012 326,636.5375 C326,638.1045 326,639.6716 326,641.2371 C326,641.4328 326,641.6285 326,641.8241 " fill="none" id="commands.example2-lib" style="stroke: #A80036; stroke-width: 1.0;"/><polygon fill="#A80036" points="326,641.8241,330,632.8241,326,636.8241,322,632.8241,326,641.8241" style="stroke: #A80036; stroke-width: 1.0;"/><!--link lib.DB to lib.Helper--><!--link lib.DB to lib.Response--><!--
@startuml

class tumcsbot.TumCSBot {
client: Client
__init__(zuliprc: str, db_path: str, debug: bool, logfile: Optional[str], **kwargs: str)
}

class commands.example1.Command extends command.Command {
__init__(**kwargs)
func(client: Client, event: Dict[str, Any], **kwargs): lib.Response
}

class commands.example2.Command extends command.CommandInteractive {
__init__(**kwargs)
handle_message(client: Client, message: Dict[str, Any], **kwargs: Any): lib.Response
}

abstract class command.Command {
{static} name: str
{static} events: List[str]
{abstract} __init__(**kwargs)
{abstract} func(client: Client, event: Dict[str, Any], **kwargs): lib.Response
is_responsible(event: Dict[str, Any]): bool
}

abstract class command.CommandInteractive extends command.Command {
{static} name: str
{static} syntax: str
{static} description: str
{static} events: List[str] = ['message']
{abstract} __init__(**kwargs)
{abstract} handle_message(client: Client,  message: Dict[str, Any], **kwargs: Any): lib.Response
func(client: Client, event: Dict[str, Any], **kwargs): lib.Response
get_usage(): Tuple[str, str]
is_responsible(event: Dict[str, Any]): bool
}

enum lib.StrEnum

class lib.DB {
{static} path: Optional[str]
__init__()
checkout_table(table: str, schema: str)
checkout_row(table: str, key_column: str, key: str, default_values: str)
execute(command: str, commit: bool): List[Tuple[Any, ...]]
}

class lib.Helper {
{static} get_help(user: str): str
{static} extend_command_docs(docs: List[Tuple[str]])
}

class lib.Response {
__init__(message_type: MessageType, response: Dict[str, Any])
is_none(): bool
{static} build_message(message: Optional[Dict[str, Any]], content: str, msg_type: Optional[str] = None, to: Optional[Union[str, int]] = None, subject: Optional[str] = None): Response
{static} build_reaction(message: Dict[str, Any], emoji: str): Response
{static} admin_err(message: Dict[str, Any]): Response
{static} command_not_found(message: Dict[str, Any]): Response
{static} error(message: Dict[str, Any]): Response
{static} exception(message: Dict[str, Any]): Response
{static} greet(message: Dict[str, Any]): Response
{static} ok(message: Dict[str, Any]): Response
{static} no(message: Dict[str, Any]): Response
{static} none(): Response
}

enum lib.Regex extends lib.StrEnum {
{static} OPT_ASTERISKS: str
{static} STREAM: str
}

enum lib.MessageType extends lib.StrEnum {
{static} MESSAGE: str
{static} EMOJI: str
{static} NONE: str
}

tumcsbot.TumCSBot o- "*" command.Command  : commands
tumcsbot.TumCSBot -down-> lib
commands.example1 -down-> lib
commands.example2 -down-> lib

@enduml

PlantUML version 1.2019.01(Sat Feb 09 16:32:04 CET 2019)
(LGPL source distribution)
Java Runtime: OpenJDK Runtime Environment
JVM: OpenJDK 64-Bit Server VM
Java Version: 15.0.1+9
Operating System: Linux
OS Version: 5.9.14-200.fc33.x86_64
Default Encoding: UTF-8
Language: en
Country: US
--></g></svg>