<?xml version="1.0" encoding="UTF-8" standalone="no"?><svg xmlns="http://www.w3.org/2000/svg" xmlns:xlink="http://www.w3.org/1999/xlink" contentScriptType="application/ecmascript" contentStyleType="text/css" height="490px" preserveAspectRatio="none" style="width:2093px;height:490px;" version="1.1" viewBox="0 0 2093 490" width="2093px" zoomAndPan="magnify"><defs><filter height="300%" id="fd1d02xij5i0f" width="300%" x="-1" y="-1"><feGaussianBlur result="blurOut" stdDeviation="2.0"/><feColorMatrix in="blurOut" result="blurOut2" type="matrix" values="0 0 0 0 0 0 0 0 0 0 0 0 0 0 0 0 0 0 .4 0"/><feOffset dx="4.0" dy="4.0" in="blurOut2" result="blurOut3"/><feBlend in="SourceGraphic" in2="blurOut3" mode="normal"/></filter></defs><g><!--cluster tumcsbot--><polygon fill="#FFFFFF" filter="url(#fd1d02xij5i0f)" points="22,30,102,30,109,52.2969,536,52.2969,536,155,22,155,22,30" style="stroke: #000000; stroke-width: 1.5;"/><line style="stroke: #000000; stroke-width: 1.5;" x1="22" x2="109" y1="52.2969" y2="52.2969"/><text fill="#000000" font-family="sans-serif" font-size="14" font-weight="bold" lengthAdjust="spacingAndGlyphs" textLength="74" x="26" y="44.9951">tumcsbot</text><!--cluster commands.example--><polygon fill="#FFFFFF" filter="url(#fd1d02xij5i0f)" points="669,328,831,328,838,350.2969,1223,350.2969,1223,478,669,478,669,328" style="stroke: #000000; stroke-width: 1.5;"/><line style="stroke: #000000; stroke-width: 1.5;" x1="669" x2="838" y1="350.2969" y2="350.2969"/><text fill="#000000" font-family="sans-serif" font-size="14" font-weight="bold" lengthAdjust="spacingAndGlyphs" textLength="156" x="673" y="342.9951">commands.example</text><!--cluster commands.debug.example--><polygon fill="#FFFFFF" filter="url(#fd1d02xij5i0f)" points="1517,179,1734,179,1741,201.2969,2071,201.2969,2071,304,1517,304,1517,179" style="stroke: #000000; stroke-width: 1.5;"/><line style="stroke: #000000; stroke-width: 1.5;" x1="1517" x2="1741" y1="201.2969" y2="201.2969"/><text fill="#000000" font-family="sans-serif" font-size="14" font-weight="bold" lengthAdjust="spacingAndGlyphs" textLength="211" x="1521" y="193.9951">commands.debug.example</text><!--cluster lib--><polygon fill="#FFFFFF" filter="url(#fd1d02xij5i0f)" points="560,24,584,24,591,46.2969,1493,46.2969,1493,297.5,560,297.5,560,24" style="stroke: #000000; stroke-width: 1.5;"/><line style="stroke: #000000; stroke-width: 1.5;" x1="560" x2="591" y1="46.2969" y2="46.2969"/><text fill="#000000" font-family="sans-serif" font-size="14" font-weight="bold" lengthAdjust="spacingAndGlyphs" textLength="18" x="564" y="38.9951">lib</text><!--class tumcsbot.TumCSBot--><rect fill="#FEFECE" filter="url(#fd1d02xij5i0f)" height="73.6094" id="tumcsbot.TumCSBot" style="stroke: #A80036; stroke-width: 1.5;" width="482" x="38" y="65"/><ellipse cx="243.25" cy="81" fill="#ADD1B2" rx="11" ry="11" style="stroke: #A80036; stroke-width: 1.0;"/><path d="M246.2188,86.6406 Q245.6406,86.9375 245,87.0781 Q244.3594,87.2344 243.6563,87.2344 Q241.1563,87.2344 239.8281,85.5938 Q238.5156,83.9375 238.5156,80.8125 Q238.5156,77.6875 239.8281,76.0313 Q241.1563,74.375 243.6563,74.375 Q244.3594,74.375 245,74.5313 Q245.6563,74.6875 246.2188,74.9844 L246.2188,77.7031 Q245.5938,77.125 245,76.8594 Q244.4063,76.5781 243.7813,76.5781 Q242.4375,76.5781 241.75,77.6563 Q241.0625,78.7188 241.0625,80.8125 Q241.0625,82.9063 241.75,83.9844 Q242.4375,85.0469 243.7813,85.0469 Q244.4063,85.0469 245,84.7813 Q245.5938,84.5 246.2188,83.9219 L246.2188,86.6406 Z "/><text fill="#000000" font-family="sans-serif" font-size="12" lengthAdjust="spacingAndGlyphs" textLength="63" x="263.75" y="85.1543">TumCSBot</text><line style="stroke: #A80036; stroke-width: 1.5;" x1="39" x2="519" y1="97" y2="97"/><line style="stroke: #A80036; stroke-width: 1.5;" x1="39" x2="519" y1="105" y2="105"/><text fill="#000000" font-family="sans-serif" font-size="11" lengthAdjust="spacingAndGlyphs" textLength="470" x="44" y="119.2104">__init__(self, zuliprc: str, debug: bool = False, logfile: str = None, **kwargs) -&gt; None</text><text fill="#000000" font-family="sans-serif" font-size="11" lengthAdjust="spacingAndGlyphs" textLength="104" x="44" y="132.0151">start(self) -&gt; None</text><!--class commands.example.Command--><rect fill="#FEFECE" filter="url(#fd1d02xij5i0f)" height="99.2188" id="commands.example.Command" style="stroke: #A80036; stroke-width: 1.5;" width="522" x="685" y="363"/><ellipse cx="910.75" cy="379" fill="#ADD1B2" rx="11" ry="11" style="stroke: #A80036; stroke-width: 1.0;"/><path d="M913.7188,384.6406 Q913.1406,384.9375 912.5,385.0781 Q911.8594,385.2344 911.1563,385.2344 Q908.6563,385.2344 907.3281,383.5938 Q906.0156,381.9375 906.0156,378.8125 Q906.0156,375.6875 907.3281,374.0313 Q908.6563,372.375 911.1563,372.375 Q911.8594,372.375 912.5,372.5313 Q913.1563,372.6875 913.7188,372.9844 L913.7188,375.7031 Q913.0938,375.125 912.5,374.8594 Q911.9063,374.5781 911.2813,374.5781 Q909.9375,374.5781 909.25,375.6563 Q908.5625,376.7188 908.5625,378.8125 Q908.5625,380.9063 909.25,381.9844 Q909.9375,383.0469 911.2813,383.0469 Q911.9063,383.0469 912.5,382.7813 Q913.0938,382.5 913.7188,381.9219 L913.7188,384.6406 Z "/><text fill="#000000" font-family="sans-serif" font-size="12" lengthAdjust="spacingAndGlyphs" textLength="62" x="931.25" y="383.1543">Command</text><line style="stroke: #A80036; stroke-width: 1.5;" x1="686" x2="1206" y1="395" y2="395"/><text fill="#000000" font-family="sans-serif" font-size="11" lengthAdjust="spacingAndGlyphs" text-decoration="underline" textLength="60" x="691" y="409.2104">syntax: str</text><line style="stroke: #000000; stroke-width: 1.0;" x1="691" x2="751" y1="411.2104" y2="411.2104"/><text fill="#000000" font-family="sans-serif" font-size="11" lengthAdjust="spacingAndGlyphs" text-decoration="underline" textLength="86" x="691" y="422.0151">description: str</text><line style="stroke: #000000; stroke-width: 1.0;" x1="691" x2="777" y1="424.0151" y2="424.0151"/><line style="stroke: #A80036; stroke-width: 1.5;" x1="686" x2="1206" y1="428.6094" y2="428.6094"/><text fill="#000000" font-family="sans-serif" font-size="11" lengthAdjust="spacingAndGlyphs" textLength="178" x="691" y="442.8198">__init__(self, **kwargs) -&gt; None</text><text fill="#000000" font-family="sans-serif" font-size="11" lengthAdjust="spacingAndGlyphs" textLength="510" x="691" y="455.6245">func(self, client: zulip.Client, message: Dict[str, Any], **kwargs) -&gt; Tuple[str, Dict[str, Any]]</text><!--class commands.debug.example.Command--><rect fill="#FEFECE" filter="url(#fd1d02xij5i0f)" height="73.6094" id="commands.debug.example.Command" style="stroke: #A80036; stroke-width: 1.5;" width="522" x="1533" y="214"/><ellipse cx="1758.75" cy="230" fill="#ADD1B2" rx="11" ry="11" style="stroke: #A80036; stroke-width: 1.0;"/><path d="M1761.7188,235.6406 Q1761.1406,235.9375 1760.5,236.0781 Q1759.8594,236.2344 1759.1563,236.2344 Q1756.6563,236.2344 1755.3281,234.5938 Q1754.0156,232.9375 1754.0156,229.8125 Q1754.0156,226.6875 1755.3281,225.0313 Q1756.6563,223.375 1759.1563,223.375 Q1759.8594,223.375 1760.5,223.5313 Q1761.1563,223.6875 1761.7188,223.9844 L1761.7188,226.7031 Q1761.0938,226.125 1760.5,225.8594 Q1759.9063,225.5781 1759.2813,225.5781 Q1757.9375,225.5781 1757.25,226.6563 Q1756.5625,227.7188 1756.5625,229.8125 Q1756.5625,231.9063 1757.25,232.9844 Q1757.9375,234.0469 1759.2813,234.0469 Q1759.9063,234.0469 1760.5,233.7813 Q1761.0938,233.5 1761.7188,232.9219 L1761.7188,235.6406 Z "/><text fill="#000000" font-family="sans-serif" font-size="12" lengthAdjust="spacingAndGlyphs" textLength="62" x="1779.25" y="234.1543">Command</text><line style="stroke: #A80036; stroke-width: 1.5;" x1="1534" x2="2054" y1="246" y2="246"/><line style="stroke: #A80036; stroke-width: 1.5;" x1="1534" x2="2054" y1="254" y2="254"/><text fill="#000000" font-family="sans-serif" font-size="11" lengthAdjust="spacingAndGlyphs" textLength="178" x="1539" y="268.2104">__init__(self, **kwargs) -&gt; None</text><text fill="#000000" font-family="sans-serif" font-size="11" lengthAdjust="spacingAndGlyphs" textLength="510" x="1539" y="281.0151">func(self, client: zulip.Client, message: Dict[str, Any], **kwargs) -&gt; Tuple[str, Dict[str, Any]]</text><!--class lib.BaseCommand--><rect fill="#FEFECE" filter="url(#fd1d02xij5i0f)" height="86.4141" id="lib.BaseCommand" style="stroke: #A80036; stroke-width: 1.5;" width="520" x="957" y="59"/><ellipse cx="1169.25" cy="75" fill="#A9DCDF" rx="11" ry="11" style="stroke: #A80036; stroke-width: 1.0;"/><path d="M1169.3594,70.3438 L1168.2031,75.4219 L1170.5313,75.4219 L1169.3594,70.3438 Z M1167.875,68.1094 L1170.8594,68.1094 L1174.2188,80.5 L1171.7656,80.5 L1171,77.4375 L1167.7188,77.4375 L1166.9688,80.5 L1164.5313,80.5 L1167.875,68.1094 Z "/><text fill="#000000" font-family="sans-serif" font-size="12" font-style="italic" lengthAdjust="spacingAndGlyphs" textLength="87" x="1189.75" y="79.1543">BaseCommand</text><line style="stroke: #A80036; stroke-width: 1.5;" x1="958" x2="1476" y1="91" y2="91"/><line style="stroke: #A80036; stroke-width: 1.5;" x1="958" x2="1476" y1="99" y2="99"/><text fill="#000000" font-family="sans-serif" font-size="11" font-style="italic" lengthAdjust="spacingAndGlyphs" textLength="176" x="963" y="113.2104">__init__(self, **kwargs) -&gt; None</text><text fill="#000000" font-family="sans-serif" font-size="11" font-style="italic" lengthAdjust="spacingAndGlyphs" textLength="508" x="963" y="126.0151">func(self, client: zulip.Client, message: Dict[str, Any], **kwargs) -&gt; Tuple[str, Dict[str, Any]]</text><text fill="#000000" font-family="sans-serif" font-size="11" lengthAdjust="spacingAndGlyphs" textLength="294" x="963" y="138.8198">is_responsible(self, message: Dict[str, Any]) -&gt; bool</text><!--class lib.Command--><rect fill="#FEFECE" filter="url(#fd1d02xij5i0f)" height="60.8047" id="lib.Command" style="stroke: #A80036; stroke-width: 1.5;" width="197" x="847.5" y="220.5"/><ellipse cx="912.25" cy="236.5" fill="#A9DCDF" rx="11" ry="11" style="stroke: #A80036; stroke-width: 1.0;"/><path d="M912.3594,231.8438 L911.2031,236.9219 L913.5313,236.9219 L912.3594,231.8438 Z M910.875,229.6094 L913.8594,229.6094 L917.2188,242 L914.7656,242 L914,238.9375 L910.7188,238.9375 L909.9688,242 L907.5313,242 L910.875,229.6094 Z "/><text fill="#000000" font-family="sans-serif" font-size="12" font-style="italic" lengthAdjust="spacingAndGlyphs" textLength="59" x="932.75" y="240.6543">Command</text><line style="stroke: #A80036; stroke-width: 1.5;" x1="848.5" x2="1043.5" y1="252.5" y2="252.5"/><line style="stroke: #A80036; stroke-width: 1.5;" x1="848.5" x2="1043.5" y1="260.5" y2="260.5"/><text fill="#000000" font-family="sans-serif" font-size="11" lengthAdjust="spacingAndGlyphs" textLength="185" x="853.5" y="274.7104">get_usage(self) -&gt; Tuple[str, str]</text><!--class lib.Helper--><rect fill="#FEFECE" filter="url(#fd1d02xij5i0f)" height="73.6094" id="lib.Helper" style="stroke: #A80036; stroke-width: 1.5;" width="345" x="576.5" y="65"/><ellipse cx="724.25" cy="81" fill="#ADD1B2" rx="11" ry="11" style="stroke: #A80036; stroke-width: 1.0;"/><path d="M727.2188,86.6406 Q726.6406,86.9375 726,87.0781 Q725.3594,87.2344 724.6563,87.2344 Q722.1563,87.2344 720.8281,85.5938 Q719.5156,83.9375 719.5156,80.8125 Q719.5156,77.6875 720.8281,76.0313 Q722.1563,74.375 724.6563,74.375 Q725.3594,74.375 726,74.5313 Q726.6563,74.6875 727.2188,74.9844 L727.2188,77.7031 Q726.5938,77.125 726,76.8594 Q725.4063,76.5781 724.7813,76.5781 Q723.4375,76.5781 722.75,77.6563 Q722.0625,78.7188 722.0625,80.8125 Q722.0625,82.9063 722.75,83.9844 Q723.4375,85.0469 724.7813,85.0469 Q725.4063,85.0469 726,84.7813 Q726.5938,84.5 727.2188,83.9219 L727.2188,86.6406 Z "/><text fill="#000000" font-family="sans-serif" font-size="12" lengthAdjust="spacingAndGlyphs" textLength="41" x="744.75" y="85.1543">Helper</text><line style="stroke: #A80036; stroke-width: 1.5;" x1="577.5" x2="920.5" y1="97" y2="97"/><line style="stroke: #A80036; stroke-width: 1.5;" x1="577.5" x2="920.5" y1="105" y2="105"/><text fill="#000000" font-family="sans-serif" font-size="11" lengthAdjust="spacingAndGlyphs" text-decoration="underline" textLength="163" x="582.5" y="119.2104">get_help(cls, user: str) -&gt; str</text><line style="stroke: #000000; stroke-width: 1.0;" x1="582.5" x2="745.5" y1="121.2104" y2="121.2104"/><text fill="#000000" font-family="sans-serif" font-size="11" lengthAdjust="spacingAndGlyphs" text-decoration="underline" textLength="333" x="582.5" y="132.0151">extend_command_docs(cls, docs: List[Tuple[str]]) -&gt; None:</text><line style="stroke: #000000; stroke-width: 1.0;" x1="582.5" x2="915.5" y1="134.0151" y2="134.0151"/><!--link tumcsbot.TumCSBot to lib.Command--><path d="M455.36,141.87 C580.6,169.47 744.18,205.52 847.19,228.22 " fill="none" id="tumcsbot.TumCSBot-lib.Command" style="stroke: #A80036; stroke-width: 1.0;"/><polygon fill="#A80036" points="442.59,139.05,447.5881,144.248,454.3086,141.6336,449.3105,136.4356,442.59,139.05" style="stroke: #A80036; stroke-width: 1.0;"/><text fill="#000000" font-family="sans-serif" font-size="13" lengthAdjust="spacingAndGlyphs" textLength="7" x="832.3569" y="222.9811">*</text><!--link lib.BaseCommand to lib.Command--><path d="M1121.71,154.69 C1081.08,176.73 1035.16,201.64 1000.45,220.47 " fill="none" id="lib.BaseCommand-lib.Command" style="stroke: #A80036; stroke-width: 1.0;"/><polygon fill="none" points="1118.42,148.51,1139.34,145.12,1125.1,160.81,1118.42,148.51" style="stroke: #A80036; stroke-width: 1.0;"/><!--link lib.Command to commands.example.Command--><path d="M946,301.77 C946,321.26 946,343.55 946,362.92 " fill="none" id="lib.Command-commands.example.Command" style="stroke: #A80036; stroke-width: 1.0;"/><polygon fill="none" points="939,301.63,946,281.63,953,301.63,939,301.63" style="stroke: #A80036; stroke-width: 1.0;"/><!--link lib.BaseCommand to commands.debug.example.Command--><path d="M1408.81,149.86 C1437.06,156.88 1465.8,164.08 1493,171 C1547.19,184.79 1606.76,200.34 1658.51,213.97 " fill="none" id="lib.BaseCommand-commands.debug.example.Command" style="stroke: #A80036; stroke-width: 1.0;"/><polygon fill="none" points="1407.09,156.65,1389.36,145.04,1410.46,143.06,1407.09,156.65" style="stroke: #A80036; stroke-width: 1.0;"/><!--
@startuml

class tumcsbot.TumCSBot {
    __init__(self, zuliprc: str, debug: bool = False, logfile: str = None, **kwargs) -> None
start(self) -> None
}

class commands.example.Command {
{static} syntax: str
{static} description: str
__init__(self, **kwargs) -> None
func(self, client: zulip.Client, message: Dict[str, Any], **kwargs) -> Tuple[str, Dict[str, Any]]
}

class commands.debug.example.Command {
__init__(self, **kwargs) -> None
func(self, client: zulip.Client, message: Dict[str, Any], **kwargs) -> Tuple[str, Dict[str, Any]]
}

abstract class lib.BaseCommand {
{abstract} __init__(self, **kwargs) -> None
{abstract} func(self, client: zulip.Client, message: Dict[str, Any], **kwargs) -> Tuple[str, Dict[str, Any]]
is_responsible(self, message: Dict[str, Any]) -> bool
}

abstract class lib.Command {
get_usage(self) -> Tuple[str, str]
}

class lib.Helper {
{static} get_help(cls, user: str) -> str
{static} extend_command_docs(cls, docs: List[Tuple[str]]) -> None:
}

tumcsbot.TumCSBot *- - "*" lib.Command
lib.BaseCommand <|- - lib.Command
lib.Command <|- -commands.example.Command
lib.BaseCommand <|- - commands.debug.example.Command

@enduml

PlantUML version 1.2019.01(Sat Feb 09 16:32:04 CET 2019)
(LGPL source distribution)
Java Runtime: OpenJDK Runtime Environment
JVM: OpenJDK 64-Bit Server VM
Java Version: 15+36
Operating System: Linux
OS Version: 5.8.12-200.fc32.x86_64
Default Encoding: UTF-8
Language: en
Country: US
--></g></svg>