<?xml version="1.0" encoding="UTF-8" standalone="no"?>
<!DOCTYPE svg PUBLIC "-//W3C//DTD SVG 1.1//EN"
 "http://www.w3.org/Graphics/SVG/1.1/DTD/svg11.dtd">
<!-- Generated by graphviz version 8.1.0 (20230707.0739)
 -->
<!-- Title: packages Pages: 1 -->
<svg width="279pt" height="260pt"
 viewBox="0.00 0.00 278.50 260.00" xmlns="http://www.w3.org/2000/svg" xmlns:xlink="http://www.w3.org/1999/xlink">
<g id="graph0" class="graph" transform="scale(1 1) rotate(0) translate(4 256)">
<title>packages</title>
<polygon fill="white" stroke="none" points="-4,4 -4,-256 274.5,-256 274.5,4 -4,4"/>
<!-- tumcsbot -->
<g id="node1" class="node">
<title>tumcsbot</title>
<polygon fill="#77aadd" stroke="#77aadd" points="82.75,-108 0,-108 0,-72 82.75,-72 82.75,-108"/>
<text text-anchor="middle" x="41.38" y="-85.33" font-family="Times,serif" font-size="14.00">tumcsbot</text>
</g>
<!-- tumcsbot.client -->
<g id="node2" class="node">
<title>tumcsbot.client</title>
<polygon fill="#77aadd" stroke="#77aadd" points="175.88,-180 48.87,-180 48.87,-144 175.88,-144 175.88,-180"/>
<text text-anchor="middle" x="112.38" y="-157.32" font-family="Times,serif" font-size="14.00">tumcsbot.client</text>
</g>
<!-- tumcsbot.lib -->
<g id="node3" class="node">
<title>tumcsbot.lib</title>
<polygon fill="#77aadd" stroke="#77aadd" points="211,-252 105.75,-252 105.75,-216 211,-216 211,-252"/>
<text text-anchor="middle" x="158.38" y="-229.32" font-family="Times,serif" font-size="14.00">tumcsbot.lib</text>
</g>
<!-- tumcsbot.client&#45;&gt;tumcsbot.lib -->
<g id="edge1" class="edge">
<title>tumcsbot.client&#45;&gt;tumcsbot.lib</title>
<path fill="none" stroke="black" d="M123.75,-180.3C129.15,-188.53 135.71,-198.52 141.67,-207.58"/>
<polygon fill="black" stroke="black" points="147.14,-215.9 137.88,-210.01 144.39,-211.72 141.64,-207.54 141.64,-207.54 141.64,-207.54 144.39,-211.72 145.4,-205.07 147.14,-215.9 147.14,-215.9"/>
</g>
<!-- tumcsbot.plugin -->
<g id="node4" class="node">
<title>tumcsbot.plugin</title>
<polygon fill="#77aadd" stroke="#77aadd" points="270.5,-108 138.25,-108 138.25,-72 270.5,-72 270.5,-108"/>
<text text-anchor="middle" x="204.38" y="-85.33" font-family="Times,serif" font-size="14.00">tumcsbot.plugin</text>
</g>
<!-- tumcsbot.plugin&#45;&gt;tumcsbot.client -->
<g id="edge2" class="edge">
<title>tumcsbot.plugin&#45;&gt;tumcsbot.client</title>
<path fill="none" stroke="black" d="M181.63,-108.3C169.91,-117.22 155.46,-128.22 142.79,-137.86"/>
<polygon fill="black" stroke="black" points="135.17,-143.65 140.41,-134.02 139.15,-140.63 143.13,-137.6 143.13,-137.6 143.13,-137.6 139.15,-140.63 145.86,-141.18 135.17,-143.65 135.17,-143.65"/>
</g>
<!-- tumcsbot.plugin&#45;&gt;tumcsbot.lib -->
<g id="edge3" class="edge">
<title>tumcsbot.plugin&#45;&gt;tumcsbot.lib</title>
<path fill="none" stroke="black" d="M202.03,-108.43C199.27,-126.64 193.93,-155.88 185.38,-180 182.13,-189.15 177.63,-198.72 173.23,-207.18"/>
<polygon fill="black" stroke="black" points="168.56,-215.84 169.34,-204.91 170.93,-211.44 173.31,-207.04 173.31,-207.04 173.31,-207.04 170.93,-211.44 177.27,-209.18 168.56,-215.84 168.56,-215.84"/>
</g>
<!-- tumcsbot.tumcsbot -->
<g id="node5" class="node">
<title>tumcsbot.tumcsbot</title>
<polygon fill="#77aadd" stroke="#77aadd" points="187.38,-36 33.38,-36 33.38,0 187.38,0 187.38,-36"/>
<text text-anchor="middle" x="110.38" y="-13.32" font-family="Times,serif" font-size="14.00">tumcsbot.tumcsbot</text>
</g>
<!-- tumcsbot.tumcsbot&#45;&gt;tumcsbot -->
<g id="edge4" class="edge">
<title>tumcsbot.tumcsbot&#45;&gt;tumcsbot</title>
<path fill="none" stroke="black" d="M93.32,-36.3C84.8,-44.95 74.35,-55.55 65.06,-64.97"/>
<polygon fill="black" stroke="black" points="58.23,-71.9 62.05,-61.61 61.75,-68.33 65.26,-64.77 65.26,-64.77 65.26,-64.77 61.75,-68.33 68.46,-67.93 58.23,-71.9 58.23,-71.9"/>
</g>
<!-- tumcsbot.tumcsbot&#45;&gt;tumcsbot.client -->
<g id="edge5" class="edge">
<title>tumcsbot.tumcsbot&#45;&gt;tumcsbot.client</title>
<path fill="none" stroke="black" d="M110.62,-36.41C110.96,-60.82 111.59,-105.42 112,-134.11"/>
<polygon fill="black" stroke="black" points="112.13,-143.89 107.49,-133.95 112.06,-138.89 111.99,-133.89 111.99,-133.89 111.99,-133.89 112.06,-138.89 116.49,-133.83 112.13,-143.89 112.13,-143.89"/>
</g>
<!-- tumcsbot.tumcsbot&#45;&gt;tumcsbot.plugin -->
<g id="edge6" class="edge">
<title>tumcsbot.tumcsbot&#45;&gt;tumcsbot.plugin</title>
<path fill="none" stroke="black" d="M133.61,-36.3C145.59,-45.22 160.36,-56.22 173.3,-65.86"/>
<polygon fill="black" stroke="black" points="181.08,-71.65 170.37,-69.29 177.07,-68.67 173.06,-65.68 173.06,-65.68 173.06,-65.68 177.07,-68.67 175.75,-62.07 181.08,-71.65 181.08,-71.65"/>
</g>
</g>
</svg>
